# Attack — Y-up, arena-scale units
mtllib top_attack.mtl
o Attack
v 0.000960 0.000000 0.000000
v 0.000952 0.000000 0.000125
v 0.000927 0.000000 0.000248
v 0.000887 0.000000 0.000367
v 0.000831 0.000000 0.000480
v 0.000762 0.000000 0.000584
v 0.000679 0.000000 0.000679
v 0.000584 0.000000 0.000762
v 0.000480 0.000000 0.000831
v 0.000367 0.000000 0.000887
v 0.000248 0.000000 0.000927
v 0.000125 0.000000 0.000952
v 0.000000 0.000000 0.000960
v -0.000125 0.000000 0.000952
v -0.000248 0.000000 0.000927
v -0.000367 0.000000 0.000887
v -0.000480 0.000000 0.000831
v -0.000584 0.000000 0.000762
v -0.000679 0.000000 0.000679
v -0.000762 0.000000 0.000584
v -0.000831 0.000000 0.000480
v -0.000887 0.000000 0.000367
v -0.000927 0.000000 0.000248
v -0.000952 0.000000 0.000125
v -0.000960 0.000000 0.000000
v -0.000952 0.000000 -0.000125
v -0.000927 0.000000 -0.000248
v -0.000887 0.000000 -0.000367
v -0.000831 0.000000 -0.000480
v -0.000762 0.000000 -0.000584
v -0.000679 0.000000 -0.000679
v -0.000584 0.000000 -0.000762
v -0.000480 0.000000 -0.000831
v -0.000367 0.000000 -0.000887
v -0.000248 0.000000 -0.000927
v -0.000125 0.000000 -0.000952
v -0.000000 0.000000 -0.000960
v 0.000125 0.000000 -0.000952
v 0.000248 0.000000 -0.000927
v 0.000367 0.000000 -0.000887
v 0.000480 0.000000 -0.000831
v 0.000584 0.000000 -0.000762
v 0.000679 0.000000 -0.000679
v 0.000762 0.000000 -0.000584
v 0.000831 0.000000 -0.000480
v 0.000887 0.000000 -0.000367
v 0.000927 0.000000 -0.000248
v 0.000952 0.000000 -0.000125
v 0.000000 0.000000 0.000000
v 0.002286 0.001488 0.000000
v 0.002267 0.001488 0.000298
v 0.002208 0.001488 0.000592
v 0.002112 0.001488 0.000875
v 0.001980 0.001488 0.001143
v 0.001814 0.001488 0.001392
v 0.001617 0.001488 0.001617
v 0.001392 0.001488 0.001814
v 0.001143 0.001488 0.001980
v 0.000875 0.001488 0.002112
v 0.000592 0.001488 0.002208
v 0.000298 0.001488 0.002267
v 0.000000 0.001488 0.002286
v -0.000298 0.001488 0.002267
v -0.000592 0.001488 0.002208
v -0.000875 0.001488 0.002112
v -0.001143 0.001488 0.001980
v -0.001392 0.001488 0.001814
v -0.001617 0.001488 0.001617
v -0.001814 0.001488 0.001392
v -0.001980 0.001488 0.001143
v -0.002112 0.001488 0.000875
v -0.002208 0.001488 0.000592
v -0.002267 0.001488 0.000298
v -0.002286 0.001488 0.000000
v -0.002267 0.001488 -0.000298
v -0.002208 0.001488 -0.000592
v -0.002112 0.001488 -0.000875
v -0.001980 0.001488 -0.001143
v -0.001814 0.001488 -0.001392
v -0.001617 0.001488 -0.001617
v -0.001392 0.001488 -0.001814
v -0.001143 0.001488 -0.001980
v -0.000875 0.001488 -0.002112
v -0.000592 0.001488 -0.002208
v -0.000298 0.001488 -0.002267
v -0.000000 0.001488 -0.002286
v 0.000298 0.001488 -0.002267
v 0.000592 0.001488 -0.002208
v 0.000875 0.001488 -0.002112
v 0.001143 0.001488 -0.001980
v 0.001392 0.001488 -0.001814
v 0.001617 0.001488 -0.001617
v 0.001814 0.001488 -0.001392
v 0.001980 0.001488 -0.001143
v 0.002112 0.001488 -0.000875
v 0.002208 0.001488 -0.000592
v 0.002267 0.001488 -0.000298
v 0.002970 0.002976 0.000000
v 0.002945 0.002976 0.000388
v 0.002869 0.002976 0.000769
v 0.002744 0.002976 0.001137
v 0.002572 0.002976 0.001485
v 0.002356 0.002976 0.001808
v 0.002100 0.002976 0.002100
v 0.001808 0.002976 0.002356
v 0.001485 0.002976 0.002572
v 0.001137 0.002976 0.002744
v 0.000769 0.002976 0.002869
v 0.000388 0.002976 0.002945
v 0.000000 0.002976 0.002970
v -0.000388 0.002976 0.002945
v -0.000769 0.002976 0.002869
v -0.001137 0.002976 0.002744
v -0.001485 0.002976 0.002572
v -0.001808 0.002976 0.002356
v -0.002100 0.002976 0.002100
v -0.002356 0.002976 0.001808
v -0.002572 0.002976 0.001485
v -0.002744 0.002976 0.001137
v -0.002869 0.002976 0.000769
v -0.002945 0.002976 0.000388
v -0.002970 0.002976 0.000000
v -0.002945 0.002976 -0.000388
v -0.002869 0.002976 -0.000769
v -0.002744 0.002976 -0.001137
v -0.002572 0.002976 -0.001485
v -0.002356 0.002976 -0.001808
v -0.002100 0.002976 -0.002100
v -0.001808 0.002976 -0.002356
v -0.001485 0.002976 -0.002572
v -0.001137 0.002976 -0.002744
v -0.000769 0.002976 -0.002869
v -0.000388 0.002976 -0.002945
v -0.000000 0.002976 -0.002970
v 0.000388 0.002976 -0.002945
v 0.000769 0.002976 -0.002869
v 0.001137 0.002976 -0.002744
v 0.001485 0.002976 -0.002572
v 0.001808 0.002976 -0.002356
v 0.002100 0.002976 -0.002100
v 0.002356 0.002976 -0.001808
v 0.002572 0.002976 -0.001485
v 0.002744 0.002976 -0.001137
v 0.002869 0.002976 -0.000769
v 0.002945 0.002976 -0.000388
v 0.003524 0.004464 0.000000
v 0.003494 0.004464 0.000460
v 0.003404 0.004464 0.000912
v 0.003256 0.004464 0.001349
v 0.003052 0.004464 0.001762
v 0.002796 0.004464 0.002145
v 0.002492 0.004464 0.002492
v 0.002145 0.004464 0.002796
v 0.001762 0.004464 0.003052
v 0.001349 0.004464 0.003256
v 0.000912 0.004464 0.003404
v 0.000460 0.004464 0.003494
v 0.000000 0.004464 0.003524
v -0.000460 0.004464 0.003494
v -0.000912 0.004464 0.003404
v -0.001349 0.004464 0.003256
v -0.001762 0.004464 0.003052
v -0.002145 0.004464 0.002796
v -0.002492 0.004464 0.002492
v -0.002796 0.004464 0.002145
v -0.003052 0.004464 0.001762
v -0.003256 0.004464 0.001349
v -0.003404 0.004464 0.000912
v -0.003494 0.004464 0.000460
v -0.003524 0.004464 0.000000
v -0.003494 0.004464 -0.000460
v -0.003404 0.004464 -0.000912
v -0.003256 0.004464 -0.001349
v -0.003052 0.004464 -0.001762
v -0.002796 0.004464 -0.002145
v -0.002492 0.004464 -0.002492
v -0.002145 0.004464 -0.002796
v -0.001762 0.004464 -0.003052
v -0.001349 0.004464 -0.003256
v -0.000912 0.004464 -0.003404
v -0.000460 0.004464 -0.003494
v -0.000000 0.004464 -0.003524
v 0.000460 0.004464 -0.003494
v 0.000912 0.004464 -0.003404
v 0.001349 0.004464 -0.003256
v 0.001762 0.004464 -0.003052
v 0.002145 0.004464 -0.002796
v 0.002492 0.004464 -0.002492
v 0.002796 0.004464 -0.002145
v 0.003052 0.004464 -0.001762
v 0.003256 0.004464 -0.001349
v 0.003404 0.004464 -0.000912
v 0.003494 0.004464 -0.000460
v 0.004007 0.005952 0.000000
v 0.003973 0.005952 0.000523
v 0.003870 0.005952 0.001037
v 0.003702 0.005952 0.001533
v 0.003470 0.005952 0.002003
v 0.003179 0.005952 0.002439
v 0.002833 0.005952 0.002833
v 0.002439 0.005952 0.003179
v 0.002003 0.005952 0.003470
v 0.001533 0.005952 0.003702
v 0.001037 0.005952 0.003870
v 0.000523 0.005952 0.003973
v 0.000000 0.005952 0.004007
v -0.000523 0.005952 0.003973
v -0.001037 0.005952 0.003870
v -0.001533 0.005952 0.003702
v -0.002003 0.005952 0.003470
v -0.002439 0.005952 0.003179
v -0.002833 0.005952 0.002833
v -0.003179 0.005952 0.002439
v -0.003470 0.005952 0.002003
v -0.003702 0.005952 0.001533
v -0.003870 0.005952 0.001037
v -0.003973 0.005952 0.000523
v -0.004007 0.005952 0.000000
v -0.003973 0.005952 -0.000523
v -0.003870 0.005952 -0.001037
v -0.003702 0.005952 -0.001533
v -0.003470 0.005952 -0.002003
v -0.003179 0.005952 -0.002439
v -0.002833 0.005952 -0.002833
v -0.002439 0.005952 -0.003179
v -0.002003 0.005952 -0.003470
v -0.001533 0.005952 -0.003702
v -0.001037 0.005952 -0.003870
v -0.000523 0.005952 -0.003973
v -0.000000 0.005952 -0.004007
v 0.000523 0.005952 -0.003973
v 0.001037 0.005952 -0.003870
v 0.001533 0.005952 -0.003702
v 0.002003 0.005952 -0.003470
v 0.002439 0.005952 -0.003179
v 0.002833 0.005952 -0.002833
v 0.003179 0.005952 -0.002439
v 0.003470 0.005952 -0.002003
v 0.003702 0.005952 -0.001533
v 0.003870 0.005952 -0.001037
v 0.003973 0.005952 -0.000523
v 0.004444 0.007440 0.000000
v 0.004405 0.007440 0.000580
v 0.004292 0.007440 0.001150
v 0.004105 0.007440 0.001700
v 0.003848 0.007440 0.002222
v 0.003525 0.007440 0.002705
v 0.003142 0.007440 0.003142
v 0.002705 0.007440 0.003525
v 0.002222 0.007440 0.003848
v 0.001700 0.007440 0.004105
v 0.001150 0.007440 0.004292
v 0.000580 0.007440 0.004405
v 0.000000 0.007440 0.004444
v -0.000580 0.007440 0.004405
v -0.001150 0.007440 0.004292
v -0.001700 0.007440 0.004105
v -0.002222 0.007440 0.003848
v -0.002705 0.007440 0.003525
v -0.003142 0.007440 0.003142
v -0.003525 0.007440 0.002705
v -0.003848 0.007440 0.002222
v -0.004105 0.007440 0.001700
v -0.004292 0.007440 0.001150
v -0.004405 0.007440 0.000580
v -0.004444 0.007440 0.000000
v -0.004405 0.007440 -0.000580
v -0.004292 0.007440 -0.001150
v -0.004105 0.007440 -0.001700
v -0.003848 0.007440 -0.002222
v -0.003525 0.007440 -0.002705
v -0.003142 0.007440 -0.003142
v -0.002705 0.007440 -0.003525
v -0.002222 0.007440 -0.003848
v -0.001700 0.007440 -0.004105
v -0.001150 0.007440 -0.004292
v -0.000580 0.007440 -0.004405
v -0.000000 0.007440 -0.004444
v 0.000580 0.007440 -0.004405
v 0.001150 0.007440 -0.004292
v 0.001700 0.007440 -0.004105
v 0.002222 0.007440 -0.003848
v 0.002705 0.007440 -0.003525
v 0.003142 0.007440 -0.003142
v 0.003525 0.007440 -0.002705
v 0.003848 0.007440 -0.002222
v 0.004105 0.007440 -0.001700
v 0.004292 0.007440 -0.001150
v 0.004405 0.007440 -0.000580
v 0.004846 0.008928 0.000000
v 0.004805 0.008928 0.000633
v 0.004681 0.008928 0.001254
v 0.004477 0.008928 0.001855
v 0.004197 0.008928 0.002423
v 0.003845 0.008928 0.002950
v 0.003427 0.008928 0.003427
v 0.002950 0.008928 0.003845
v 0.002423 0.008928 0.004197
v 0.001855 0.008928 0.004477
v 0.001254 0.008928 0.004681
v 0.000633 0.008928 0.004805
v 0.000000 0.008928 0.004846
v -0.000633 0.008928 0.004805
v -0.001254 0.008928 0.004681
v -0.001855 0.008928 0.004477
v -0.002423 0.008928 0.004197
v -0.002950 0.008928 0.003845
v -0.003427 0.008928 0.003427
v -0.003845 0.008928 0.002950
v -0.004197 0.008928 0.002423
v -0.004477 0.008928 0.001855
v -0.004681 0.008928 0.001254
v -0.004805 0.008928 0.000633
v -0.004846 0.008928 0.000000
v -0.004805 0.008928 -0.000633
v -0.004681 0.008928 -0.001254
v -0.004477 0.008928 -0.001855
v -0.004197 0.008928 -0.002423
v -0.003845 0.008928 -0.002950
v -0.003427 0.008928 -0.003427
v -0.002950 0.008928 -0.003845
v -0.002423 0.008928 -0.004197
v -0.001855 0.008928 -0.004477
v -0.001254 0.008928 -0.004681
v -0.000633 0.008928 -0.004805
v -0.000000 0.008928 -0.004846
v 0.000633 0.008928 -0.004805
v 0.001254 0.008928 -0.004681
v 0.001855 0.008928 -0.004477
v 0.002423 0.008928 -0.004197
v 0.002950 0.008928 -0.003845
v 0.003427 0.008928 -0.003427
v 0.003845 0.008928 -0.002950
v 0.004197 0.008928 -0.002423
v 0.004477 0.008928 -0.001855
v 0.004681 0.008928 -0.001254
v 0.004805 0.008928 -0.000633
v 0.005223 0.010416 0.000000
v 0.005178 0.010416 0.000682
v 0.005045 0.010416 0.001352
v 0.004825 0.010416 0.001999
v 0.004523 0.010416 0.002611
v 0.004144 0.010416 0.003179
v 0.003693 0.010416 0.003693
v 0.003179 0.010416 0.004144
v 0.002611 0.010416 0.004523
v 0.001999 0.010416 0.004825
v 0.001352 0.010416 0.005045
v 0.000682 0.010416 0.005178
v 0.000000 0.010416 0.005223
v -0.000682 0.010416 0.005178
v -0.001352 0.010416 0.005045
v -0.001999 0.010416 0.004825
v -0.002611 0.010416 0.004523
v -0.003179 0.010416 0.004144
v -0.003693 0.010416 0.003693
v -0.004144 0.010416 0.003179
v -0.004523 0.010416 0.002611
v -0.004825 0.010416 0.001999
v -0.005045 0.010416 0.001352
v -0.005178 0.010416 0.000682
v -0.005223 0.010416 0.000000
v -0.005178 0.010416 -0.000682
v -0.005045 0.010416 -0.001352
v -0.004825 0.010416 -0.001999
v -0.004523 0.010416 -0.002611
v -0.004144 0.010416 -0.003179
v -0.003693 0.010416 -0.003693
v -0.003179 0.010416 -0.004144
v -0.002611 0.010416 -0.004523
v -0.001999 0.010416 -0.004825
v -0.001352 0.010416 -0.005045
v -0.000682 0.010416 -0.005178
v -0.000000 0.010416 -0.005223
v 0.000682 0.010416 -0.005178
v 0.001352 0.010416 -0.005045
v 0.001999 0.010416 -0.004825
v 0.002611 0.010416 -0.004523
v 0.003179 0.010416 -0.004144
v 0.003693 0.010416 -0.003693
v 0.004144 0.010416 -0.003179
v 0.004523 0.010416 -0.002611
v 0.004825 0.010416 -0.001999
v 0.005045 0.010416 -0.001352
v 0.005178 0.010416 -0.000682
v 0.005578 0.011904 0.000000
v 0.005531 0.011904 0.000728
v 0.005388 0.011904 0.001444
v 0.005154 0.011904 0.002135
v 0.004831 0.011904 0.002789
v 0.004426 0.011904 0.003396
v 0.003944 0.011904 0.003944
v 0.003396 0.011904 0.004426
v 0.002789 0.011904 0.004831
v 0.002135 0.011904 0.005154
v 0.001444 0.011904 0.005388
v 0.000728 0.011904 0.005531
v 0.000000 0.011904 0.005578
v -0.000728 0.011904 0.005531
v -0.001444 0.011904 0.005388
v -0.002135 0.011904 0.005154
v -0.002789 0.011904 0.004831
v -0.003396 0.011904 0.004426
v -0.003944 0.011904 0.003944
v -0.004426 0.011904 0.003396
v -0.004831 0.011904 0.002789
v -0.005154 0.011904 0.002135
v -0.005388 0.011904 0.001444
v -0.005531 0.011904 0.000728
v -0.005578 0.011904 0.000000
v -0.005531 0.011904 -0.000728
v -0.005388 0.011904 -0.001444
v -0.005154 0.011904 -0.002135
v -0.004831 0.011904 -0.002789
v -0.004426 0.011904 -0.003396
v -0.003944 0.011904 -0.003944
v -0.003396 0.011904 -0.004426
v -0.002789 0.011904 -0.004831
v -0.002135 0.011904 -0.005154
v -0.001444 0.011904 -0.005388
v -0.000728 0.011904 -0.005531
v -0.000000 0.011904 -0.005578
v 0.000728 0.011904 -0.005531
v 0.001444 0.011904 -0.005388
v 0.002135 0.011904 -0.005154
v 0.002789 0.011904 -0.004831
v 0.003396 0.011904 -0.004426
v 0.003944 0.011904 -0.003944
v 0.004426 0.011904 -0.003396
v 0.004831 0.011904 -0.002789
v 0.005154 0.011904 -0.002135
v 0.005388 0.011904 -0.001444
v 0.005531 0.011904 -0.000728
v 0.005917 0.013392 0.000000
v 0.005866 0.013392 0.000772
v 0.005715 0.013392 0.001531
v 0.005466 0.013392 0.002264
v 0.005124 0.013392 0.002958
v 0.004694 0.013392 0.003602
v 0.004184 0.013392 0.004184
v 0.003602 0.013392 0.004694
v 0.002958 0.013392 0.005124
v 0.002264 0.013392 0.005466
v 0.001531 0.013392 0.005715
v 0.000772 0.013392 0.005866
v 0.000000 0.013392 0.005917
v -0.000772 0.013392 0.005866
v -0.001531 0.013392 0.005715
v -0.002264 0.013392 0.005466
v -0.002958 0.013392 0.005124
v -0.003602 0.013392 0.004694
v -0.004184 0.013392 0.004184
v -0.004694 0.013392 0.003602
v -0.005124 0.013392 0.002958
v -0.005466 0.013392 0.002264
v -0.005715 0.013392 0.001531
v -0.005866 0.013392 0.000772
v -0.005917 0.013392 0.000000
v -0.005866 0.013392 -0.000772
v -0.005715 0.013392 -0.001531
v -0.005466 0.013392 -0.002264
v -0.005124 0.013392 -0.002958
v -0.004694 0.013392 -0.003602
v -0.004184 0.013392 -0.004184
v -0.003602 0.013392 -0.004694
v -0.002958 0.013392 -0.005124
v -0.002264 0.013392 -0.005466
v -0.001531 0.013392 -0.005715
v -0.000772 0.013392 -0.005866
v -0.000000 0.013392 -0.005917
v 0.000772 0.013392 -0.005866
v 0.001531 0.013392 -0.005715
v 0.002264 0.013392 -0.005466
v 0.002958 0.013392 -0.005124
v 0.003602 0.013392 -0.004694
v 0.004184 0.013392 -0.004184
v 0.004694 0.013392 -0.003602
v 0.005124 0.013392 -0.002958
v 0.005466 0.013392 -0.002264
v 0.005715 0.013392 -0.001531
v 0.005866 0.013392 -0.000772
v 0.006240 0.014880 0.000000
v 0.006187 0.014880 0.000814
v 0.006027 0.014880 0.001615
v 0.005765 0.014880 0.002388
v 0.005404 0.014880 0.003120
v 0.004951 0.014880 0.003799
v 0.004412 0.014880 0.004412
v 0.003799 0.014880 0.004951
v 0.003120 0.014880 0.005404
v 0.002388 0.014880 0.005765
v 0.001615 0.014880 0.006027
v 0.000814 0.014880 0.006187
v 0.000000 0.014880 0.006240
v -0.000814 0.014880 0.006187
v -0.001615 0.014880 0.006027
v -0.002388 0.014880 0.005765
v -0.003120 0.014880 0.005404
v -0.003799 0.014880 0.004951
v -0.004412 0.014880 0.004412
v -0.004951 0.014880 0.003799
v -0.005404 0.014880 0.003120
v -0.005765 0.014880 0.002388
v -0.006027 0.014880 0.001615
v -0.006187 0.014880 0.000814
v -0.006240 0.014880 0.000000
v -0.006187 0.014880 -0.000814
v -0.006027 0.014880 -0.001615
v -0.005765 0.014880 -0.002388
v -0.005404 0.014880 -0.003120
v -0.004951 0.014880 -0.003799
v -0.004412 0.014880 -0.004412
v -0.003799 0.014880 -0.004951
v -0.003120 0.014880 -0.005404
v -0.002388 0.014880 -0.005765
v -0.001615 0.014880 -0.006027
v -0.000814 0.014880 -0.006187
v -0.000000 0.014880 -0.006240
v 0.000814 0.014880 -0.006187
v 0.001615 0.014880 -0.006027
v 0.002388 0.014880 -0.005765
v 0.003120 0.014880 -0.005404
v 0.003799 0.014880 -0.004951
v 0.004412 0.014880 -0.004412
v 0.004951 0.014880 -0.003799
v 0.005404 0.014880 -0.003120
v 0.005765 0.014880 -0.002388
v 0.006027 0.014880 -0.001615
v 0.006187 0.014880 -0.000814
v 0.014880 0.014880 0.000000
v 0.014866 0.014880 0.000649
v 0.014823 0.014880 0.001297
v 0.014753 0.014880 0.001942
v 0.014654 0.014880 0.002584
v 0.014527 0.014880 0.003221
v 0.014373 0.014880 0.003851
v 0.014191 0.014880 0.004475
v 0.013983 0.014880 0.005089
v 0.013747 0.014880 0.005694
v 0.013486 0.014880 0.006289
v 0.013199 0.014880 0.006871
v 0.012886 0.014880 0.007440
v 0.012550 0.014880 0.007995
v 0.012189 0.014880 0.008535
v 0.011805 0.014880 0.009058
v 0.011399 0.014880 0.009565
v 0.010971 0.014880 0.010053
v 0.010522 0.014880 0.010522
v 0.010053 0.014880 0.010971
v 0.009565 0.014880 0.011399
v 0.009058 0.014880 0.011805
v 0.008535 0.014880 0.012189
v 0.007995 0.014880 0.012550
v 0.007440 0.014880 0.012886
v 0.006871 0.014880 0.013199
v 0.006289 0.014880 0.013486
v 0.005694 0.014880 0.013747
v 0.005089 0.014880 0.013983
v 0.004475 0.014880 0.014191
v 0.003851 0.014880 0.014373
v 0.003221 0.014880 0.014527
v 0.002584 0.014880 0.014654
v 0.001942 0.014880 0.014753
v 0.001297 0.014880 0.014823
v 0.000649 0.014880 0.014866
v 0.000000 0.014880 0.014880
v -0.000649 0.014880 0.014866
v -0.001297 0.014880 0.014823
v -0.001942 0.014880 0.014753
v -0.002584 0.014880 0.014654
v -0.003221 0.014880 0.014527
v -0.003851 0.014880 0.014373
v -0.004475 0.014880 0.014191
v -0.005089 0.014880 0.013983
v -0.005694 0.014880 0.013747
v -0.006289 0.014880 0.013486
v -0.006871 0.014880 0.013199
v -0.007440 0.014880 0.012886
v -0.007995 0.014880 0.012550
v -0.008535 0.014880 0.012189
v -0.009058 0.014880 0.011805
v -0.009565 0.014880 0.011399
v -0.010053 0.014880 0.010971
v -0.010522 0.014880 0.010522
v -0.010971 0.014880 0.010053
v -0.011399 0.014880 0.009565
v -0.011805 0.014880 0.009058
v -0.012189 0.014880 0.008535
v -0.012550 0.014880 0.007995
v -0.012886 0.014880 0.007440
v -0.013199 0.014880 0.006871
v -0.013486 0.014880 0.006289
v -0.013747 0.014880 0.005694
v -0.013983 0.014880 0.005089
v -0.014191 0.014880 0.004475
v -0.014373 0.014880 0.003851
v -0.014527 0.014880 0.003221
v -0.014654 0.014880 0.002584
v -0.014753 0.014880 0.001942
v -0.014823 0.014880 0.001297
v -0.014866 0.014880 0.000649
v -0.014880 0.014880 0.000000
v -0.014866 0.014880 -0.000649
v -0.014823 0.014880 -0.001297
v -0.014753 0.014880 -0.001942
v -0.014654 0.014880 -0.002584
v -0.014527 0.014880 -0.003221
v -0.014373 0.014880 -0.003851
v -0.014191 0.014880 -0.004475
v -0.013983 0.014880 -0.005089
v -0.013747 0.014880 -0.005694
v -0.013486 0.014880 -0.006289
v -0.013199 0.014880 -0.006871
v -0.012886 0.014880 -0.007440
v -0.012550 0.014880 -0.007995
v -0.012189 0.014880 -0.008535
v -0.011805 0.014880 -0.009058
v -0.011399 0.014880 -0.009565
v -0.010971 0.014880 -0.010053
v -0.010522 0.014880 -0.010522
v -0.010053 0.014880 -0.010971
v -0.009565 0.014880 -0.011399
v -0.009058 0.014880 -0.011805
v -0.008535 0.014880 -0.012189
v -0.007995 0.014880 -0.012550
v -0.007440 0.014880 -0.012886
v -0.006871 0.014880 -0.013199
v -0.006289 0.014880 -0.013486
v -0.005694 0.014880 -0.013747
v -0.005089 0.014880 -0.013983
v -0.004475 0.014880 -0.014191
v -0.003851 0.014880 -0.014373
v -0.003221 0.014880 -0.014527
v -0.002584 0.014880 -0.014654
v -0.001942 0.014880 -0.014753
v -0.001297 0.014880 -0.014823
v -0.000649 0.014880 -0.014866
v -0.000000 0.014880 -0.014880
v 0.000649 0.014880 -0.014866
v 0.001297 0.014880 -0.014823
v 0.001942 0.014880 -0.014753
v 0.002584 0.014880 -0.014654
v 0.003221 0.014880 -0.014527
v 0.003851 0.014880 -0.014373
v 0.004475 0.014880 -0.014191
v 0.005089 0.014880 -0.013983
v 0.005694 0.014880 -0.013747
v 0.006289 0.014880 -0.013486
v 0.006871 0.014880 -0.013199
v 0.007440 0.014880 -0.012886
v 0.007995 0.014880 -0.012550
v 0.008535 0.014880 -0.012189
v 0.009058 0.014880 -0.011805
v 0.009565 0.014880 -0.011399
v 0.010053 0.014880 -0.010971
v 0.010522 0.014880 -0.010522
v 0.010971 0.014880 -0.010053
v 0.011399 0.014880 -0.009565
v 0.011805 0.014880 -0.009058
v 0.012189 0.014880 -0.008535
v 0.012550 0.014880 -0.007995
v 0.012886 0.014880 -0.007440
v 0.013199 0.014880 -0.006871
v 0.013486 0.014880 -0.006289
v 0.013747 0.014880 -0.005694
v 0.013983 0.014880 -0.005089
v 0.014191 0.014880 -0.004475
v 0.014373 0.014880 -0.003851
v 0.014527 0.014880 -0.003221
v 0.014654 0.014880 -0.002584
v 0.014753 0.014880 -0.001942
v 0.014823 0.014880 -0.001297
v 0.014866 0.014880 -0.000649
v 0.019200 0.017280 0.000000
v 0.020240 0.017280 0.000884
v 0.021237 0.017280 0.001858
v 0.022185 0.017280 0.002921
v 0.023079 0.017280 0.004069
v 0.023914 0.017280 0.005301
v 0.023700 0.017280 0.006351
v 0.022680 0.017280 0.007151
v 0.021635 0.017280 0.007875
v 0.020573 0.017280 0.008521
v 0.019496 0.017280 0.009091
v 0.018410 0.017280 0.009584
v 0.017319 0.017280 0.009999
v 0.016229 0.017280 0.010339
v 0.015728 0.017280 0.011013
v 0.015232 0.017280 0.011688
v 0.014708 0.017280 0.012342
v 0.014936 0.017280 0.013687
v 0.015074 0.017280 0.015074
v 0.015117 0.017280 0.016498
v 0.015064 0.017280 0.017952
v 0.014911 0.017280 0.019432
v 0.014074 0.017280 0.020099
v 0.012777 0.017280 0.020056
v 0.011512 0.017280 0.019939
v 0.010282 0.017280 0.019752
v 0.009091 0.017280 0.019496
v 0.007943 0.017280 0.019175
v 0.006840 0.017280 0.018793
v 0.005786 0.017280 0.018352
v 0.004969 0.017280 0.018546
v 0.004156 0.017280 0.018745
v 0.003334 0.017280 0.018908
v 0.002644 0.017280 0.020086
v 0.001858 0.017280 0.021237
v 0.000976 0.017280 0.022355
v 0.000000 0.017280 0.023435
v -0.001068 0.017280 0.024471
v -0.002138 0.017280 0.024443
v -0.003104 0.017280 0.023577
v -0.003998 0.017280 0.022674
v -0.004820 0.017280 0.021740
v -0.005568 0.017280 0.020778
v -0.006241 0.017280 0.019794
v -0.006840 0.017280 0.018793
v -0.007364 0.017280 0.017778
v -0.008114 0.017280 0.017401
v -0.008866 0.017280 0.017031
v -0.009600 0.017280 0.016628
v -0.010885 0.017280 0.017086
v -0.012227 0.017280 0.017462
v -0.013622 0.017280 0.017752
v -0.015064 0.017280 0.017952
v -0.016548 0.017280 0.018059
v -0.017350 0.017280 0.017350
v -0.017533 0.017280 0.016066
v -0.017637 0.017280 0.014799
v -0.017666 0.017280 0.013556
v -0.017621 0.017280 0.012338
v -0.017505 0.017280 0.011152
v -0.017319 0.017280 0.009999
v -0.017068 0.017280 0.008885
v -0.017401 0.017280 0.008114
v -0.017738 0.017280 0.007348
v -0.018042 0.017280 0.006567
v -0.019321 0.017280 0.006092
v -0.020591 0.017280 0.005517
v -0.021846 0.017280 0.004843
v -0.023079 0.017280 0.004069
v -0.024285 0.017280 0.003197
v -0.024443 0.017280 0.002138
v -0.023758 0.017280 0.001037
v -0.023024 0.017280 0.000000
v -0.022246 0.017280 -0.000971
v -0.021429 0.017280 -0.001875
v -0.020577 0.017280 -0.002709
v -0.019695 0.017280 -0.003473
v -0.018786 0.017280 -0.004165
v -0.018546 0.017280 -0.004969
v -0.018311 0.017280 -0.005774
v -0.018042 0.017280 -0.006567
v -0.018717 0.017280 -0.007753
v -0.019320 0.017280 -0.009009
v -0.019848 0.017280 -0.010332
v -0.020296 0.017280 -0.011718
v -0.020658 0.017280 -0.013161
v -0.020099 0.017280 -0.014074
v -0.018866 0.017280 -0.014476
v -0.017637 0.017280 -0.014799
v -0.016417 0.017280 -0.015044
v -0.015211 0.017280 -0.015211
v -0.014022 0.017280 -0.015302
v -0.012855 0.017280 -0.015320
v -0.011714 0.017280 -0.015266
v -0.011013 0.017280 -0.015728
v -0.010316 0.017280 -0.016193
v -0.009600 0.017280 -0.016628
v -0.009354 0.017280 -0.017970
v -0.009009 0.017280 -0.019320
v -0.008563 0.017280 -0.020673
v -0.008015 0.017280 -0.022022
v -0.007366 0.017280 -0.023360
v -0.006351 0.017280 -0.023700
v -0.005147 0.017280 -0.023216
v -0.003998 0.017280 -0.022674
v -0.002907 0.017280 -0.022077
v -0.001875 0.017280 -0.021429
v -0.000905 0.017280 -0.020735
v -0.000000 0.017280 -0.019999
v 0.000839 0.017280 -0.019224
v 0.001673 0.017280 -0.019127
v 0.002506 0.017280 -0.019036
v 0.003334 0.017280 -0.018908
v 0.004385 0.017280 -0.019779
v 0.005517 0.017280 -0.020591
v 0.006729 0.017280 -0.021341
v 0.008015 0.017280 -0.022022
v 0.009373 0.017280 -0.022630
v 0.010370 0.017280 -0.022238
v 0.010980 0.017280 -0.021093
v 0.011512 0.017280 -0.019939
v 0.011964 0.017280 -0.018780
v 0.012338 0.017280 -0.017621
v 0.012635 0.017280 -0.016466
v 0.012855 0.017280 -0.015320
v 0.013000 0.017280 -0.014187
v 0.013576 0.017280 -0.013576
v 0.014156 0.017280 -0.012971
v 0.014708 0.017280 -0.012342
v 0.016072 0.017280 -0.012333
v 0.017462 0.017280 -0.012227
v 0.018872 0.017280 -0.012023
v 0.020296 0.017280 -0.011718
v 0.021727 0.017280 -0.011310
v 0.022238 0.017280 -0.010370
v 0.021970 0.017280 -0.009100
v 0.021635 0.017280 -0.007875
v 0.021237 0.017280 -0.006696
v 0.020778 0.017280 -0.005568
v 0.020263 0.017280 -0.004492
v 0.019695 0.017280 -0.003473
v 0.019078 0.017280 -0.002512
v 0.019127 0.017280 -0.001673
v 0.019182 0.017280 -0.000837
v 0.019200 0.022080 0.000000
v 0.020240 0.022080 0.000884
v 0.021237 0.022080 0.001858
v 0.022185 0.022080 0.002921
v 0.023079 0.022080 0.004069
v 0.023914 0.022080 0.005301
v 0.023700 0.022080 0.006351
v 0.022680 0.022080 0.007151
v 0.021635 0.022080 0.007875
v 0.020573 0.022080 0.008521
v 0.019496 0.022080 0.009091
v 0.018410 0.022080 0.009584
v 0.017319 0.022080 0.009999
v 0.016229 0.022080 0.010339
v 0.015728 0.022080 0.011013
v 0.015232 0.022080 0.011688
v 0.014708 0.022080 0.012342
v 0.014936 0.022080 0.013687
v 0.015074 0.022080 0.015074
v 0.015117 0.022080 0.016498
v 0.015064 0.022080 0.017952
v 0.014911 0.022080 0.019432
v 0.014074 0.022080 0.020099
v 0.012777 0.022080 0.020056
v 0.011512 0.022080 0.019939
v 0.010282 0.022080 0.019752
v 0.009091 0.022080 0.019496
v 0.007943 0.022080 0.019175
v 0.006840 0.022080 0.018793
v 0.005786 0.022080 0.018352
v 0.004969 0.022080 0.018546
v 0.004156 0.022080 0.018745
v 0.003334 0.022080 0.018908
v 0.002644 0.022080 0.020086
v 0.001858 0.022080 0.021237
v 0.000976 0.022080 0.022355
v 0.000000 0.022080 0.023435
v -0.001068 0.022080 0.024471
v -0.002138 0.022080 0.024443
v -0.003104 0.022080 0.023577
v -0.003998 0.022080 0.022674
v -0.004820 0.022080 0.021740
v -0.005568 0.022080 0.020778
v -0.006241 0.022080 0.019794
v -0.006840 0.022080 0.018793
v -0.007364 0.022080 0.017778
v -0.008114 0.022080 0.017401
v -0.008866 0.022080 0.017031
v -0.009600 0.022080 0.016628
v -0.010885 0.022080 0.017086
v -0.012227 0.022080 0.017462
v -0.013622 0.022080 0.017752
v -0.015064 0.022080 0.017952
v -0.016548 0.022080 0.018059
v -0.017350 0.022080 0.017350
v -0.017533 0.022080 0.016066
v -0.017637 0.022080 0.014799
v -0.017666 0.022080 0.013556
v -0.017621 0.022080 0.012338
v -0.017505 0.022080 0.011152
v -0.017319 0.022080 0.009999
v -0.017068 0.022080 0.008885
v -0.017401 0.022080 0.008114
v -0.017738 0.022080 0.007348
v -0.018042 0.022080 0.006567
v -0.019321 0.022080 0.006092
v -0.020591 0.022080 0.005517
v -0.021846 0.022080 0.004843
v -0.023079 0.022080 0.004069
v -0.024285 0.022080 0.003197
v -0.024443 0.022080 0.002138
v -0.023758 0.022080 0.001037
v -0.023024 0.022080 0.000000
v -0.022246 0.022080 -0.000971
v -0.021429 0.022080 -0.001875
v -0.020577 0.022080 -0.002709
v -0.019695 0.022080 -0.003473
v -0.018786 0.022080 -0.004165
v -0.018546 0.022080 -0.004969
v -0.018311 0.022080 -0.005774
v -0.018042 0.022080 -0.006567
v -0.018717 0.022080 -0.007753
v -0.019320 0.022080 -0.009009
v -0.019848 0.022080 -0.010332
v -0.020296 0.022080 -0.011718
v -0.020658 0.022080 -0.013161
v -0.020099 0.022080 -0.014074
v -0.018866 0.022080 -0.014476
v -0.017637 0.022080 -0.014799
v -0.016417 0.022080 -0.015044
v -0.015211 0.022080 -0.015211
v -0.014022 0.022080 -0.015302
v -0.012855 0.022080 -0.015320
v -0.011714 0.022080 -0.015266
v -0.011013 0.022080 -0.015728
v -0.010316 0.022080 -0.016193
v -0.009600 0.022080 -0.016628
v -0.009354 0.022080 -0.017970
v -0.009009 0.022080 -0.019320
v -0.008563 0.022080 -0.020673
v -0.008015 0.022080 -0.022022
v -0.007366 0.022080 -0.023360
v -0.006351 0.022080 -0.023700
v -0.005147 0.022080 -0.023216
v -0.003998 0.022080 -0.022674
v -0.002907 0.022080 -0.022077
v -0.001875 0.022080 -0.021429
v -0.000905 0.022080 -0.020735
v -0.000000 0.022080 -0.019999
v 0.000839 0.022080 -0.019224
v 0.001673 0.022080 -0.019127
v 0.002506 0.022080 -0.019036
v 0.003334 0.022080 -0.018908
v 0.004385 0.022080 -0.019779
v 0.005517 0.022080 -0.020591
v 0.006729 0.022080 -0.021341
v 0.008015 0.022080 -0.022022
v 0.009373 0.022080 -0.022630
v 0.010370 0.022080 -0.022238
v 0.010980 0.022080 -0.021093
v 0.011512 0.022080 -0.019939
v 0.011964 0.022080 -0.018780
v 0.012338 0.022080 -0.017621
v 0.012635 0.022080 -0.016466
v 0.012855 0.022080 -0.015320
v 0.013000 0.022080 -0.014187
v 0.013576 0.022080 -0.013576
v 0.014156 0.022080 -0.012971
v 0.014708 0.022080 -0.012342
v 0.016072 0.022080 -0.012333
v 0.017462 0.022080 -0.012227
v 0.018872 0.022080 -0.012023
v 0.020296 0.022080 -0.011718
v 0.021727 0.022080 -0.011310
v 0.022238 0.022080 -0.010370
v 0.021970 0.022080 -0.009100
v 0.021635 0.022080 -0.007875
v 0.021237 0.022080 -0.006696
v 0.020778 0.022080 -0.005568
v 0.020263 0.022080 -0.004492
v 0.019695 0.022080 -0.003473
v 0.019078 0.022080 -0.002512
v 0.019127 0.022080 -0.001673
v 0.019182 0.022080 -0.000837
v 0.016800 0.024480 0.000000
v 0.016784 0.024480 0.000733
v 0.016736 0.024480 0.001464
v 0.016656 0.024480 0.002193
v 0.016545 0.024480 0.002917
v 0.016402 0.024480 0.003636
v 0.016228 0.024480 0.004348
v 0.016022 0.024480 0.005052
v 0.015787 0.024480 0.005746
v 0.015521 0.024480 0.006429
v 0.015226 0.024480 0.007100
v 0.014902 0.024480 0.007757
v 0.014549 0.024480 0.008400
v 0.014169 0.024480 0.009027
v 0.013762 0.024480 0.009636
v 0.013328 0.024480 0.010227
v 0.012870 0.024480 0.010799
v 0.012386 0.024480 0.011350
v 0.011879 0.024480 0.011879
v 0.011350 0.024480 0.012386
v 0.010799 0.024480 0.012870
v 0.010227 0.024480 0.013328
v 0.009636 0.024480 0.013762
v 0.009027 0.024480 0.014169
v 0.008400 0.024480 0.014549
v 0.007757 0.024480 0.014902
v 0.007100 0.024480 0.015226
v 0.006429 0.024480 0.015521
v 0.005746 0.024480 0.015787
v 0.005052 0.024480 0.016022
v 0.004348 0.024480 0.016228
v 0.003636 0.024480 0.016402
v 0.002917 0.024480 0.016545
v 0.002193 0.024480 0.016656
v 0.001464 0.024480 0.016736
v 0.000733 0.024480 0.016784
v 0.000000 0.024480 0.016800
v -0.000733 0.024480 0.016784
v -0.001464 0.024480 0.016736
v -0.002193 0.024480 0.016656
v -0.002917 0.024480 0.016545
v -0.003636 0.024480 0.016402
v -0.004348 0.024480 0.016228
v -0.005052 0.024480 0.016022
v -0.005746 0.024480 0.015787
v -0.006429 0.024480 0.015521
v -0.007100 0.024480 0.015226
v -0.007757 0.024480 0.014902
v -0.008400 0.024480 0.014549
v -0.009027 0.024480 0.014169
v -0.009636 0.024480 0.013762
v -0.010227 0.024480 0.013328
v -0.010799 0.024480 0.012870
v -0.011350 0.024480 0.012386
v -0.011879 0.024480 0.011879
v -0.012386 0.024480 0.011350
v -0.012870 0.024480 0.010799
v -0.013328 0.024480 0.010227
v -0.013762 0.024480 0.009636
v -0.014169 0.024480 0.009027
v -0.014549 0.024480 0.008400
v -0.014902 0.024480 0.007757
v -0.015226 0.024480 0.007100
v -0.015521 0.024480 0.006429
v -0.015787 0.024480 0.005746
v -0.016022 0.024480 0.005052
v -0.016228 0.024480 0.004348
v -0.016402 0.024480 0.003636
v -0.016545 0.024480 0.002917
v -0.016656 0.024480 0.002193
v -0.016736 0.024480 0.001464
v -0.016784 0.024480 0.000733
v -0.016800 0.024480 0.000000
v -0.016784 0.024480 -0.000733
v -0.016736 0.024480 -0.001464
v -0.016656 0.024480 -0.002193
v -0.016545 0.024480 -0.002917
v -0.016402 0.024480 -0.003636
v -0.016228 0.024480 -0.004348
v -0.016022 0.024480 -0.005052
v -0.015787 0.024480 -0.005746
v -0.015521 0.024480 -0.006429
v -0.015226 0.024480 -0.007100
v -0.014902 0.024480 -0.007757
v -0.014549 0.024480 -0.008400
v -0.014169 0.024480 -0.009027
v -0.013762 0.024480 -0.009636
v -0.013328 0.024480 -0.010227
v -0.012870 0.024480 -0.010799
v -0.012386 0.024480 -0.011350
v -0.011879 0.024480 -0.011879
v -0.011350 0.024480 -0.012386
v -0.010799 0.024480 -0.012870
v -0.010227 0.024480 -0.013328
v -0.009636 0.024480 -0.013762
v -0.009027 0.024480 -0.014169
v -0.008400 0.024480 -0.014549
v -0.007757 0.024480 -0.014902
v -0.007100 0.024480 -0.015226
v -0.006429 0.024480 -0.015521
v -0.005746 0.024480 -0.015787
v -0.005052 0.024480 -0.016022
v -0.004348 0.024480 -0.016228
v -0.003636 0.024480 -0.016402
v -0.002917 0.024480 -0.016545
v -0.002193 0.024480 -0.016656
v -0.001464 0.024480 -0.016736
v -0.000733 0.024480 -0.016784
v -0.000000 0.024480 -0.016800
v 0.000733 0.024480 -0.016784
v 0.001464 0.024480 -0.016736
v 0.002193 0.024480 -0.016656
v 0.002917 0.024480 -0.016545
v 0.003636 0.024480 -0.016402
v 0.004348 0.024480 -0.016228
v 0.005052 0.024480 -0.016022
v 0.005746 0.024480 -0.015787
v 0.006429 0.024480 -0.015521
v 0.007100 0.024480 -0.015226
v 0.007757 0.024480 -0.014902
v 0.008400 0.024480 -0.014549
v 0.009027 0.024480 -0.014169
v 0.009636 0.024480 -0.013762
v 0.010227 0.024480 -0.013328
v 0.010799 0.024480 -0.012870
v 0.011350 0.024480 -0.012386
v 0.011879 0.024480 -0.011879
v 0.012386 0.024480 -0.011350
v 0.012870 0.024480 -0.010799
v 0.013328 0.024480 -0.010227
v 0.013762 0.024480 -0.009636
v 0.014169 0.024480 -0.009027
v 0.014549 0.024480 -0.008400
v 0.014902 0.024480 -0.007757
v 0.015226 0.024480 -0.007100
v 0.015521 0.024480 -0.006429
v 0.015787 0.024480 -0.005746
v 0.016022 0.024480 -0.005052
v 0.016228 0.024480 -0.004348
v 0.016402 0.024480 -0.003636
v 0.016545 0.024480 -0.002917
v 0.016656 0.024480 -0.002193
v 0.016736 0.024480 -0.001464
v 0.016784 0.024480 -0.000733
v 0.016228 0.025101 0.000000
v 0.016212 0.025101 0.000708
v 0.016166 0.025101 0.001414
v 0.016089 0.025101 0.002118
v 0.015981 0.025101 0.002818
v 0.015843 0.025101 0.003512
v 0.015675 0.025101 0.004200
v 0.015476 0.025101 0.004880
v 0.015249 0.025101 0.005550
v 0.014992 0.025101 0.006210
v 0.014707 0.025101 0.006858
v 0.014394 0.025101 0.007493
v 0.014053 0.025101 0.008114
v 0.013686 0.025101 0.008719
v 0.013293 0.025101 0.009308
v 0.012874 0.025101 0.009879
v 0.012431 0.025101 0.010431
v 0.011964 0.025101 0.010963
v 0.011475 0.025101 0.011475
v 0.010963 0.025101 0.011964
v 0.010431 0.025101 0.012431
v 0.009879 0.025101 0.012874
v 0.009308 0.025101 0.013293
v 0.008719 0.025101 0.013686
v 0.008114 0.025101 0.014053
v 0.007493 0.025101 0.014394
v 0.006858 0.025101 0.014707
v 0.006210 0.025101 0.014992
v 0.005550 0.025101 0.015249
v 0.004880 0.025101 0.015476
v 0.004200 0.025101 0.015675
v 0.003512 0.025101 0.015843
v 0.002818 0.025101 0.015981
v 0.002118 0.025101 0.016089
v 0.001414 0.025101 0.016166
v 0.000708 0.025101 0.016212
v 0.000000 0.025101 0.016228
v -0.000708 0.025101 0.016212
v -0.001414 0.025101 0.016166
v -0.002118 0.025101 0.016089
v -0.002818 0.025101 0.015981
v -0.003512 0.025101 0.015843
v -0.004200 0.025101 0.015675
v -0.004880 0.025101 0.015476
v -0.005550 0.025101 0.015249
v -0.006210 0.025101 0.014992
v -0.006858 0.025101 0.014707
v -0.007493 0.025101 0.014394
v -0.008114 0.025101 0.014053
v -0.008719 0.025101 0.013686
v -0.009308 0.025101 0.013293
v -0.009879 0.025101 0.012874
v -0.010431 0.025101 0.012431
v -0.010963 0.025101 0.011964
v -0.011475 0.025101 0.011475
v -0.011964 0.025101 0.010963
v -0.012431 0.025101 0.010431
v -0.012874 0.025101 0.009879
v -0.013293 0.025101 0.009308
v -0.013686 0.025101 0.008719
v -0.014053 0.025101 0.008114
v -0.014394 0.025101 0.007493
v -0.014707 0.025101 0.006858
v -0.014992 0.025101 0.006210
v -0.015249 0.025101 0.005550
v -0.015476 0.025101 0.004880
v -0.015675 0.025101 0.004200
v -0.015843 0.025101 0.003512
v -0.015981 0.025101 0.002818
v -0.016089 0.025101 0.002118
v -0.016166 0.025101 0.001414
v -0.016212 0.025101 0.000708
v -0.016228 0.025101 0.000000
v -0.016212 0.025101 -0.000708
v -0.016166 0.025101 -0.001414
v -0.016089 0.025101 -0.002118
v -0.015981 0.025101 -0.002818
v -0.015843 0.025101 -0.003512
v -0.015675 0.025101 -0.004200
v -0.015476 0.025101 -0.004880
v -0.015249 0.025101 -0.005550
v -0.014992 0.025101 -0.006210
v -0.014707 0.025101 -0.006858
v -0.014394 0.025101 -0.007493
v -0.014053 0.025101 -0.008114
v -0.013686 0.025101 -0.008719
v -0.013293 0.025101 -0.009308
v -0.012874 0.025101 -0.009879
v -0.012431 0.025101 -0.010431
v -0.011964 0.025101 -0.010963
v -0.011475 0.025101 -0.011475
v -0.010963 0.025101 -0.011964
v -0.010431 0.025101 -0.012431
v -0.009879 0.025101 -0.012874
v -0.009308 0.025101 -0.013293
v -0.008719 0.025101 -0.013686
v -0.008114 0.025101 -0.014053
v -0.007493 0.025101 -0.014394
v -0.006858 0.025101 -0.014707
v -0.006210 0.025101 -0.014992
v -0.005550 0.025101 -0.015249
v -0.004880 0.025101 -0.015476
v -0.004200 0.025101 -0.015675
v -0.003512 0.025101 -0.015843
v -0.002818 0.025101 -0.015981
v -0.002118 0.025101 -0.016089
v -0.001414 0.025101 -0.016166
v -0.000708 0.025101 -0.016212
v -0.000000 0.025101 -0.016228
v 0.000708 0.025101 -0.016212
v 0.001414 0.025101 -0.016166
v 0.002118 0.025101 -0.016089
v 0.002818 0.025101 -0.015981
v 0.003512 0.025101 -0.015843
v 0.004200 0.025101 -0.015675
v 0.004880 0.025101 -0.015476
v 0.005550 0.025101 -0.015249
v 0.006210 0.025101 -0.014992
v 0.006858 0.025101 -0.014707
v 0.007493 0.025101 -0.014394
v 0.008114 0.025101 -0.014053
v 0.008719 0.025101 -0.013686
v 0.009308 0.025101 -0.013293
v 0.009879 0.025101 -0.012874
v 0.010431 0.025101 -0.012431
v 0.010963 0.025101 -0.011964
v 0.011475 0.025101 -0.011475
v 0.011964 0.025101 -0.010963
v 0.012431 0.025101 -0.010431
v 0.012874 0.025101 -0.009879
v 0.013293 0.025101 -0.009308
v 0.013686 0.025101 -0.008719
v 0.014053 0.025101 -0.008114
v 0.014394 0.025101 -0.007493
v 0.014707 0.025101 -0.006858
v 0.014992 0.025101 -0.006210
v 0.015249 0.025101 -0.005550
v 0.015476 0.025101 -0.004880
v 0.015675 0.025101 -0.004200
v 0.015843 0.025101 -0.003512
v 0.015981 0.025101 -0.002818
v 0.016089 0.025101 -0.002118
v 0.016166 0.025101 -0.001414
v 0.016212 0.025101 -0.000708
v 0.014549 0.025680 0.000000
v 0.014535 0.025680 0.000635
v 0.014494 0.025680 0.001268
v 0.014425 0.025680 0.001899
v 0.014328 0.025680 0.002526
v 0.014204 0.025680 0.003149
v 0.014053 0.025680 0.003766
v 0.013876 0.025680 0.004375
v 0.013672 0.025680 0.004976
v 0.013442 0.025680 0.005568
v 0.013186 0.025680 0.006149
v 0.012905 0.025680 0.006718
v 0.012600 0.025680 0.007275
v 0.012271 0.025680 0.007817
v 0.011918 0.025680 0.008345
v 0.011543 0.025680 0.008857
v 0.011145 0.025680 0.009352
v 0.010727 0.025680 0.009829
v 0.010288 0.025680 0.010288
v 0.009829 0.025680 0.010727
v 0.009352 0.025680 0.011145
v 0.008857 0.025680 0.011543
v 0.008345 0.025680 0.011918
v 0.007817 0.025680 0.012271
v 0.007275 0.025680 0.012600
v 0.006718 0.025680 0.012905
v 0.006149 0.025680 0.013186
v 0.005568 0.025680 0.013442
v 0.004976 0.025680 0.013672
v 0.004375 0.025680 0.013876
v 0.003766 0.025680 0.014053
v 0.003149 0.025680 0.014204
v 0.002526 0.025680 0.014328
v 0.001899 0.025680 0.014425
v 0.001268 0.025680 0.014494
v 0.000635 0.025680 0.014535
v 0.000000 0.025680 0.014549
v -0.000635 0.025680 0.014535
v -0.001268 0.025680 0.014494
v -0.001899 0.025680 0.014425
v -0.002526 0.025680 0.014328
v -0.003149 0.025680 0.014204
v -0.003766 0.025680 0.014053
v -0.004375 0.025680 0.013876
v -0.004976 0.025680 0.013672
v -0.005568 0.025680 0.013442
v -0.006149 0.025680 0.013186
v -0.006718 0.025680 0.012905
v -0.007275 0.025680 0.012600
v -0.007817 0.025680 0.012271
v -0.008345 0.025680 0.011918
v -0.008857 0.025680 0.011543
v -0.009352 0.025680 0.011145
v -0.009829 0.025680 0.010727
v -0.010288 0.025680 0.010288
v -0.010727 0.025680 0.009829
v -0.011145 0.025680 0.009352
v -0.011543 0.025680 0.008857
v -0.011918 0.025680 0.008345
v -0.012271 0.025680 0.007817
v -0.012600 0.025680 0.007275
v -0.012905 0.025680 0.006718
v -0.013186 0.025680 0.006149
v -0.013442 0.025680 0.005568
v -0.013672 0.025680 0.004976
v -0.013876 0.025680 0.004375
v -0.014053 0.025680 0.003766
v -0.014204 0.025680 0.003149
v -0.014328 0.025680 0.002526
v -0.014425 0.025680 0.001899
v -0.014494 0.025680 0.001268
v -0.014535 0.025680 0.000635
v -0.014549 0.025680 0.000000
v -0.014535 0.025680 -0.000635
v -0.014494 0.025680 -0.001268
v -0.014425 0.025680 -0.001899
v -0.014328 0.025680 -0.002526
v -0.014204 0.025680 -0.003149
v -0.014053 0.025680 -0.003766
v -0.013876 0.025680 -0.004375
v -0.013672 0.025680 -0.004976
v -0.013442 0.025680 -0.005568
v -0.013186 0.025680 -0.006149
v -0.012905 0.025680 -0.006718
v -0.012600 0.025680 -0.007275
v -0.012271 0.025680 -0.007817
v -0.011918 0.025680 -0.008345
v -0.011543 0.025680 -0.008857
v -0.011145 0.025680 -0.009352
v -0.010727 0.025680 -0.009829
v -0.010288 0.025680 -0.010288
v -0.009829 0.025680 -0.010727
v -0.009352 0.025680 -0.011145
v -0.008857 0.025680 -0.011543
v -0.008345 0.025680 -0.011918
v -0.007817 0.025680 -0.012271
v -0.007275 0.025680 -0.012600
v -0.006718 0.025680 -0.012905
v -0.006149 0.025680 -0.013186
v -0.005568 0.025680 -0.013442
v -0.004976 0.025680 -0.013672
v -0.004375 0.025680 -0.013876
v -0.003766 0.025680 -0.014053
v -0.003149 0.025680 -0.014204
v -0.002526 0.025680 -0.014328
v -0.001899 0.025680 -0.014425
v -0.001268 0.025680 -0.014494
v -0.000635 0.025680 -0.014535
v -0.000000 0.025680 -0.014549
v 0.000635 0.025680 -0.014535
v 0.001268 0.025680 -0.014494
v 0.001899 0.025680 -0.014425
v 0.002526 0.025680 -0.014328
v 0.003149 0.025680 -0.014204
v 0.003766 0.025680 -0.014053
v 0.004375 0.025680 -0.013876
v 0.004976 0.025680 -0.013672
v 0.005568 0.025680 -0.013442
v 0.006149 0.025680 -0.013186
v 0.006718 0.025680 -0.012905
v 0.007275 0.025680 -0.012600
v 0.007817 0.025680 -0.012271
v 0.008345 0.025680 -0.011918
v 0.008857 0.025680 -0.011543
v 0.009352 0.025680 -0.011145
v 0.009829 0.025680 -0.010727
v 0.010288 0.025680 -0.010288
v 0.010727 0.025680 -0.009829
v 0.011145 0.025680 -0.009352
v 0.011543 0.025680 -0.008857
v 0.011918 0.025680 -0.008345
v 0.012271 0.025680 -0.007817
v 0.012600 0.025680 -0.007275
v 0.012905 0.025680 -0.006718
v 0.013186 0.025680 -0.006149
v 0.013442 0.025680 -0.005568
v 0.013672 0.025680 -0.004976
v 0.013876 0.025680 -0.004375
v 0.014053 0.025680 -0.003766
v 0.014204 0.025680 -0.003149
v 0.014328 0.025680 -0.002526
v 0.014425 0.025680 -0.001899
v 0.014494 0.025680 -0.001268
v 0.014535 0.025680 -0.000635
v 0.011879 0.026177 0.000000
v 0.011868 0.026177 0.000518
v 0.011834 0.026177 0.001035
v 0.011778 0.026177 0.001551
v 0.011699 0.026177 0.002063
v 0.011598 0.026177 0.002571
v 0.011475 0.026177 0.003075
v 0.011330 0.026177 0.003572
v 0.011163 0.026177 0.004063
v 0.010975 0.026177 0.004546
v 0.010766 0.026177 0.005020
v 0.010537 0.026177 0.005485
v 0.010288 0.026177 0.005940
v 0.010019 0.026177 0.006383
v 0.009731 0.026177 0.006814
v 0.009425 0.026177 0.007232
v 0.009100 0.026177 0.007636
v 0.008758 0.026177 0.008026
v 0.008400 0.026177 0.008400
v 0.008026 0.026177 0.008758
v 0.007636 0.026177 0.009100
v 0.007232 0.026177 0.009425
v 0.006814 0.026177 0.009731
v 0.006383 0.026177 0.010019
v 0.005940 0.026177 0.010288
v 0.005485 0.026177 0.010537
v 0.005020 0.026177 0.010766
v 0.004546 0.026177 0.010975
v 0.004063 0.026177 0.011163
v 0.003572 0.026177 0.011330
v 0.003075 0.026177 0.011475
v 0.002571 0.026177 0.011598
v 0.002063 0.026177 0.011699
v 0.001551 0.026177 0.011778
v 0.001035 0.026177 0.011834
v 0.000518 0.026177 0.011868
v 0.000000 0.026177 0.011879
v -0.000518 0.026177 0.011868
v -0.001035 0.026177 0.011834
v -0.001551 0.026177 0.011778
v -0.002063 0.026177 0.011699
v -0.002571 0.026177 0.011598
v -0.003075 0.026177 0.011475
v -0.003572 0.026177 0.011330
v -0.004063 0.026177 0.011163
v -0.004546 0.026177 0.010975
v -0.005020 0.026177 0.010766
v -0.005485 0.026177 0.010537
v -0.005940 0.026177 0.010288
v -0.006383 0.026177 0.010019
v -0.006814 0.026177 0.009731
v -0.007232 0.026177 0.009425
v -0.007636 0.026177 0.009100
v -0.008026 0.026177 0.008758
v -0.008400 0.026177 0.008400
v -0.008758 0.026177 0.008026
v -0.009100 0.026177 0.007636
v -0.009425 0.026177 0.007232
v -0.009731 0.026177 0.006814
v -0.010019 0.026177 0.006383
v -0.010288 0.026177 0.005940
v -0.010537 0.026177 0.005485
v -0.010766 0.026177 0.005020
v -0.010975 0.026177 0.004546
v -0.011163 0.026177 0.004063
v -0.011330 0.026177 0.003572
v -0.011475 0.026177 0.003075
v -0.011598 0.026177 0.002571
v -0.011699 0.026177 0.002063
v -0.011778 0.026177 0.001551
v -0.011834 0.026177 0.001035
v -0.011868 0.026177 0.000518
v -0.011879 0.026177 0.000000
v -0.011868 0.026177 -0.000518
v -0.011834 0.026177 -0.001035
v -0.011778 0.026177 -0.001551
v -0.011699 0.026177 -0.002063
v -0.011598 0.026177 -0.002571
v -0.011475 0.026177 -0.003075
v -0.011330 0.026177 -0.003572
v -0.011163 0.026177 -0.004063
v -0.010975 0.026177 -0.004546
v -0.010766 0.026177 -0.005020
v -0.010537 0.026177 -0.005485
v -0.010288 0.026177 -0.005940
v -0.010019 0.026177 -0.006383
v -0.009731 0.026177 -0.006814
v -0.009425 0.026177 -0.007232
v -0.009100 0.026177 -0.007636
v -0.008758 0.026177 -0.008026
v -0.008400 0.026177 -0.008400
v -0.008026 0.026177 -0.008758
v -0.007636 0.026177 -0.009100
v -0.007232 0.026177 -0.009425
v -0.006814 0.026177 -0.009731
v -0.006383 0.026177 -0.010019
v -0.005940 0.026177 -0.010288
v -0.005485 0.026177 -0.010537
v -0.005020 0.026177 -0.010766
v -0.004546 0.026177 -0.010975
v -0.004063 0.026177 -0.011163
v -0.003572 0.026177 -0.011330
v -0.003075 0.026177 -0.011475
v -0.002571 0.026177 -0.011598
v -0.002063 0.026177 -0.011699
v -0.001551 0.026177 -0.011778
v -0.001035 0.026177 -0.011834
v -0.000518 0.026177 -0.011868
v -0.000000 0.026177 -0.011879
v 0.000518 0.026177 -0.011868
v 0.001035 0.026177 -0.011834
v 0.001551 0.026177 -0.011778
v 0.002063 0.026177 -0.011699
v 0.002571 0.026177 -0.011598
v 0.003075 0.026177 -0.011475
v 0.003572 0.026177 -0.011330
v 0.004063 0.026177 -0.011163
v 0.004546 0.026177 -0.010975
v 0.005020 0.026177 -0.010766
v 0.005485 0.026177 -0.010537
v 0.005940 0.026177 -0.010288
v 0.006383 0.026177 -0.010019
v 0.006814 0.026177 -0.009731
v 0.007232 0.026177 -0.009425
v 0.007636 0.026177 -0.009100
v 0.008026 0.026177 -0.008758
v 0.008400 0.026177 -0.008400
v 0.008758 0.026177 -0.008026
v 0.009100 0.026177 -0.007636
v 0.009425 0.026177 -0.007232
v 0.009731 0.026177 -0.006814
v 0.010019 0.026177 -0.006383
v 0.010288 0.026177 -0.005940
v 0.010537 0.026177 -0.005485
v 0.010766 0.026177 -0.005020
v 0.010975 0.026177 -0.004546
v 0.011163 0.026177 -0.004063
v 0.011330 0.026177 -0.003572
v 0.011475 0.026177 -0.003075
v 0.011598 0.026177 -0.002571
v 0.011699 0.026177 -0.002063
v 0.011778 0.026177 -0.001551
v 0.011834 0.026177 -0.001035
v 0.011868 0.026177 -0.000518
v 0.008400 0.026558 0.000000
v 0.008392 0.026558 0.000366
v 0.008368 0.026558 0.000732
v 0.008328 0.026558 0.001096
v 0.008272 0.026558 0.001459
v 0.008201 0.026558 0.001818
v 0.008114 0.026558 0.002174
v 0.008011 0.026558 0.002526
v 0.007893 0.026558 0.002873
v 0.007761 0.026558 0.003215
v 0.007613 0.026558 0.003550
v 0.007451 0.026558 0.003879
v 0.007275 0.026558 0.004200
v 0.007084 0.026558 0.004513
v 0.006881 0.026558 0.004818
v 0.006664 0.026558 0.005114
v 0.006435 0.026558 0.005399
v 0.006193 0.026558 0.005675
v 0.005940 0.026558 0.005940
v 0.005675 0.026558 0.006193
v 0.005399 0.026558 0.006435
v 0.005114 0.026558 0.006664
v 0.004818 0.026558 0.006881
v 0.004513 0.026558 0.007084
v 0.004200 0.026558 0.007275
v 0.003879 0.026558 0.007451
v 0.003550 0.026558 0.007613
v 0.003215 0.026558 0.007761
v 0.002873 0.026558 0.007893
v 0.002526 0.026558 0.008011
v 0.002174 0.026558 0.008114
v 0.001818 0.026558 0.008201
v 0.001459 0.026558 0.008272
v 0.001096 0.026558 0.008328
v 0.000732 0.026558 0.008368
v 0.000366 0.026558 0.008392
v 0.000000 0.026558 0.008400
v -0.000366 0.026558 0.008392
v -0.000732 0.026558 0.008368
v -0.001096 0.026558 0.008328
v -0.001459 0.026558 0.008272
v -0.001818 0.026558 0.008201
v -0.002174 0.026558 0.008114
v -0.002526 0.026558 0.008011
v -0.002873 0.026558 0.007893
v -0.003215 0.026558 0.007761
v -0.003550 0.026558 0.007613
v -0.003879 0.026558 0.007451
v -0.004200 0.026558 0.007275
v -0.004513 0.026558 0.007084
v -0.004818 0.026558 0.006881
v -0.005114 0.026558 0.006664
v -0.005399 0.026558 0.006435
v -0.005675 0.026558 0.006193
v -0.005940 0.026558 0.005940
v -0.006193 0.026558 0.005675
v -0.006435 0.026558 0.005399
v -0.006664 0.026558 0.005114
v -0.006881 0.026558 0.004818
v -0.007084 0.026558 0.004513
v -0.007275 0.026558 0.004200
v -0.007451 0.026558 0.003879
v -0.007613 0.026558 0.003550
v -0.007761 0.026558 0.003215
v -0.007893 0.026558 0.002873
v -0.008011 0.026558 0.002526
v -0.008114 0.026558 0.002174
v -0.008201 0.026558 0.001818
v -0.008272 0.026558 0.001459
v -0.008328 0.026558 0.001096
v -0.008368 0.026558 0.000732
v -0.008392 0.026558 0.000366
v -0.008400 0.026558 0.000000
v -0.008392 0.026558 -0.000366
v -0.008368 0.026558 -0.000732
v -0.008328 0.026558 -0.001096
v -0.008272 0.026558 -0.001459
v -0.008201 0.026558 -0.001818
v -0.008114 0.026558 -0.002174
v -0.008011 0.026558 -0.002526
v -0.007893 0.026558 -0.002873
v -0.007761 0.026558 -0.003215
v -0.007613 0.026558 -0.003550
v -0.007451 0.026558 -0.003879
v -0.007275 0.026558 -0.004200
v -0.007084 0.026558 -0.004513
v -0.006881 0.026558 -0.004818
v -0.006664 0.026558 -0.005114
v -0.006435 0.026558 -0.005399
v -0.006193 0.026558 -0.005675
v -0.005940 0.026558 -0.005940
v -0.005675 0.026558 -0.006193
v -0.005399 0.026558 -0.006435
v -0.005114 0.026558 -0.006664
v -0.004818 0.026558 -0.006881
v -0.004513 0.026558 -0.007084
v -0.004200 0.026558 -0.007275
v -0.003879 0.026558 -0.007451
v -0.003550 0.026558 -0.007613
v -0.003215 0.026558 -0.007761
v -0.002873 0.026558 -0.007893
v -0.002526 0.026558 -0.008011
v -0.002174 0.026558 -0.008114
v -0.001818 0.026558 -0.008201
v -0.001459 0.026558 -0.008272
v -0.001096 0.026558 -0.008328
v -0.000732 0.026558 -0.008368
v -0.000366 0.026558 -0.008392
v -0.000000 0.026558 -0.008400
v 0.000366 0.026558 -0.008392
v 0.000732 0.026558 -0.008368
v 0.001096 0.026558 -0.008328
v 0.001459 0.026558 -0.008272
v 0.001818 0.026558 -0.008201
v 0.002174 0.026558 -0.008114
v 0.002526 0.026558 -0.008011
v 0.002873 0.026558 -0.007893
v 0.003215 0.026558 -0.007761
v 0.003550 0.026558 -0.007613
v 0.003879 0.026558 -0.007451
v 0.004200 0.026558 -0.007275
v 0.004513 0.026558 -0.007084
v 0.004818 0.026558 -0.006881
v 0.005114 0.026558 -0.006664
v 0.005399 0.026558 -0.006435
v 0.005675 0.026558 -0.006193
v 0.005940 0.026558 -0.005940
v 0.006193 0.026558 -0.005675
v 0.006435 0.026558 -0.005399
v 0.006664 0.026558 -0.005114
v 0.006881 0.026558 -0.004818
v 0.007084 0.026558 -0.004513
v 0.007275 0.026558 -0.004200
v 0.007451 0.026558 -0.003879
v 0.007613 0.026558 -0.003550
v 0.007761 0.026558 -0.003215
v 0.007893 0.026558 -0.002873
v 0.008011 0.026558 -0.002526
v 0.008114 0.026558 -0.002174
v 0.008201 0.026558 -0.001818
v 0.008272 0.026558 -0.001459
v 0.008328 0.026558 -0.001096
v 0.008368 0.026558 -0.000732
v 0.008392 0.026558 -0.000366
v 0.004348 0.026798 0.000000
v 0.004344 0.026798 0.000190
v 0.004332 0.026798 0.000379
v 0.004311 0.026798 0.000568
v 0.004282 0.026798 0.000755
v 0.004245 0.026798 0.000941
v 0.004200 0.026798 0.001125
v 0.004147 0.026798 0.001308
v 0.004086 0.026798 0.001487
v 0.004017 0.026798 0.001664
v 0.003941 0.026798 0.001838
v 0.003857 0.026798 0.002008
v 0.003766 0.026798 0.002174
v 0.003667 0.026798 0.002336
v 0.003562 0.026798 0.002494
v 0.003450 0.026798 0.002647
v 0.003331 0.026798 0.002795
v 0.003206 0.026798 0.002938
v 0.003075 0.026798 0.003075
v 0.002938 0.026798 0.003206
v 0.002795 0.026798 0.003331
v 0.002647 0.026798 0.003450
v 0.002494 0.026798 0.003562
v 0.002336 0.026798 0.003667
v 0.002174 0.026798 0.003766
v 0.002008 0.026798 0.003857
v 0.001838 0.026798 0.003941
v 0.001664 0.026798 0.004017
v 0.001487 0.026798 0.004086
v 0.001308 0.026798 0.004147
v 0.001125 0.026798 0.004200
v 0.000941 0.026798 0.004245
v 0.000755 0.026798 0.004282
v 0.000568 0.026798 0.004311
v 0.000379 0.026798 0.004332
v 0.000190 0.026798 0.004344
v 0.000000 0.026798 0.004348
v -0.000190 0.026798 0.004344
v -0.000379 0.026798 0.004332
v -0.000568 0.026798 0.004311
v -0.000755 0.026798 0.004282
v -0.000941 0.026798 0.004245
v -0.001125 0.026798 0.004200
v -0.001308 0.026798 0.004147
v -0.001487 0.026798 0.004086
v -0.001664 0.026798 0.004017
v -0.001838 0.026798 0.003941
v -0.002008 0.026798 0.003857
v -0.002174 0.026798 0.003766
v -0.002336 0.026798 0.003667
v -0.002494 0.026798 0.003562
v -0.002647 0.026798 0.003450
v -0.002795 0.026798 0.003331
v -0.002938 0.026798 0.003206
v -0.003075 0.026798 0.003075
v -0.003206 0.026798 0.002938
v -0.003331 0.026798 0.002795
v -0.003450 0.026798 0.002647
v -0.003562 0.026798 0.002494
v -0.003667 0.026798 0.002336
v -0.003766 0.026798 0.002174
v -0.003857 0.026798 0.002008
v -0.003941 0.026798 0.001838
v -0.004017 0.026798 0.001664
v -0.004086 0.026798 0.001487
v -0.004147 0.026798 0.001308
v -0.004200 0.026798 0.001125
v -0.004245 0.026798 0.000941
v -0.004282 0.026798 0.000755
v -0.004311 0.026798 0.000568
v -0.004332 0.026798 0.000379
v -0.004344 0.026798 0.000190
v -0.004348 0.026798 0.000000
v -0.004344 0.026798 -0.000190
v -0.004332 0.026798 -0.000379
v -0.004311 0.026798 -0.000568
v -0.004282 0.026798 -0.000755
v -0.004245 0.026798 -0.000941
v -0.004200 0.026798 -0.001125
v -0.004147 0.026798 -0.001308
v -0.004086 0.026798 -0.001487
v -0.004017 0.026798 -0.001664
v -0.003941 0.026798 -0.001838
v -0.003857 0.026798 -0.002008
v -0.003766 0.026798 -0.002174
v -0.003667 0.026798 -0.002336
v -0.003562 0.026798 -0.002494
v -0.003450 0.026798 -0.002647
v -0.003331 0.026798 -0.002795
v -0.003206 0.026798 -0.002938
v -0.003075 0.026798 -0.003075
v -0.002938 0.026798 -0.003206
v -0.002795 0.026798 -0.003331
v -0.002647 0.026798 -0.003450
v -0.002494 0.026798 -0.003562
v -0.002336 0.026798 -0.003667
v -0.002174 0.026798 -0.003766
v -0.002008 0.026798 -0.003857
v -0.001838 0.026798 -0.003941
v -0.001664 0.026798 -0.004017
v -0.001487 0.026798 -0.004086
v -0.001308 0.026798 -0.004147
v -0.001125 0.026798 -0.004200
v -0.000941 0.026798 -0.004245
v -0.000755 0.026798 -0.004282
v -0.000568 0.026798 -0.004311
v -0.000379 0.026798 -0.004332
v -0.000190 0.026798 -0.004344
v -0.000000 0.026798 -0.004348
v 0.000190 0.026798 -0.004344
v 0.000379 0.026798 -0.004332
v 0.000568 0.026798 -0.004311
v 0.000755 0.026798 -0.004282
v 0.000941 0.026798 -0.004245
v 0.001125 0.026798 -0.004200
v 0.001308 0.026798 -0.004147
v 0.001487 0.026798 -0.004086
v 0.001664 0.026798 -0.004017
v 0.001838 0.026798 -0.003941
v 0.002008 0.026798 -0.003857
v 0.002174 0.026798 -0.003766
v 0.002336 0.026798 -0.003667
v 0.002494 0.026798 -0.003562
v 0.002647 0.026798 -0.003450
v 0.002795 0.026798 -0.003331
v 0.002938 0.026798 -0.003206
v 0.003075 0.026798 -0.003075
v 0.003206 0.026798 -0.002938
v 0.003331 0.026798 -0.002795
v 0.003450 0.026798 -0.002647
v 0.003562 0.026798 -0.002494
v 0.003667 0.026798 -0.002336
v 0.003766 0.026798 -0.002174
v 0.003857 0.026798 -0.002008
v 0.003941 0.026798 -0.001838
v 0.004017 0.026798 -0.001664
v 0.004086 0.026798 -0.001487
v 0.004147 0.026798 -0.001308
v 0.004200 0.026798 -0.001125
v 0.004245 0.026798 -0.000941
v 0.004282 0.026798 -0.000755
v 0.004311 0.026798 -0.000568
v 0.004332 0.026798 -0.000379
v 0.004344 0.026798 -0.000190
v 0.000000 0.026880 0.000000
v 0.000000 0.014880 0.000000
usemtl Body
f 49 1 2
f 49 2 3
f 49 3 4
f 49 4 5
f 49 5 6
f 49 6 7
f 49 7 8
f 49 8 9
f 49 9 10
f 49 10 11
f 49 11 12
f 49 12 13
f 49 13 14
f 49 14 15
f 49 15 16
f 49 16 17
f 49 17 18
f 49 18 19
f 49 19 20
f 49 20 21
f 49 21 22
f 49 22 23
f 49 23 24
f 49 24 25
f 49 25 26
f 49 26 27
f 49 27 28
f 49 28 29
f 49 29 30
f 49 30 31
f 49 31 32
f 49 32 33
f 49 33 34
f 49 34 35
f 49 35 36
f 49 36 37
f 49 37 38
f 49 38 39
f 49 39 40
f 49 40 41
f 49 41 42
f 49 42 43
f 49 43 44
f 49 44 45
f 49 45 46
f 49 46 47
f 49 47 48
f 49 48 1
f 1 50 51 2
f 2 51 52 3
f 3 52 53 4
f 4 53 54 5
f 5 54 55 6
f 6 55 56 7
f 7 56 57 8
f 8 57 58 9
f 9 58 59 10
f 10 59 60 11
f 11 60 61 12
f 12 61 62 13
f 13 62 63 14
f 14 63 64 15
f 15 64 65 16
f 16 65 66 17
f 17 66 67 18
f 18 67 68 19
f 19 68 69 20
f 20 69 70 21
f 21 70 71 22
f 22 71 72 23
f 23 72 73 24
f 24 73 74 25
f 25 74 75 26
f 26 75 76 27
f 27 76 77 28
f 28 77 78 29
f 29 78 79 30
f 30 79 80 31
f 31 80 81 32
f 32 81 82 33
f 33 82 83 34
f 34 83 84 35
f 35 84 85 36
f 36 85 86 37
f 37 86 87 38
f 38 87 88 39
f 39 88 89 40
f 40 89 90 41
f 41 90 91 42
f 42 91 92 43
f 43 92 93 44
f 44 93 94 45
f 45 94 95 46
f 46 95 96 47
f 47 96 97 48
f 48 97 50 1
f 50 98 99 51
f 51 99 100 52
f 52 100 101 53
f 53 101 102 54
f 54 102 103 55
f 55 103 104 56
f 56 104 105 57
f 57 105 106 58
f 58 106 107 59
f 59 107 108 60
f 60 108 109 61
f 61 109 110 62
f 62 110 111 63
f 63 111 112 64
f 64 112 113 65
f 65 113 114 66
f 66 114 115 67
f 67 115 116 68
f 68 116 117 69
f 69 117 118 70
f 70 118 119 71
f 71 119 120 72
f 72 120 121 73
f 73 121 122 74
f 74 122 123 75
f 75 123 124 76
f 76 124 125 77
f 77 125 126 78
f 78 126 127 79
f 79 127 128 80
f 80 128 129 81
f 81 129 130 82
f 82 130 131 83
f 83 131 132 84
f 84 132 133 85
f 85 133 134 86
f 86 134 135 87
f 87 135 136 88
f 88 136 137 89
f 89 137 138 90
f 90 138 139 91
f 91 139 140 92
f 92 140 141 93
f 93 141 142 94
f 94 142 143 95
f 95 143 144 96
f 96 144 145 97
f 97 145 98 50
f 98 146 147 99
f 99 147 148 100
f 100 148 149 101
f 101 149 150 102
f 102 150 151 103
f 103 151 152 104
f 104 152 153 105
f 105 153 154 106
f 106 154 155 107
f 107 155 156 108
f 108 156 157 109
f 109 157 158 110
f 110 158 159 111
f 111 159 160 112
f 112 160 161 113
f 113 161 162 114
f 114 162 163 115
f 115 163 164 116
f 116 164 165 117
f 117 165 166 118
f 118 166 167 119
f 119 167 168 120
f 120 168 169 121
f 121 169 170 122
f 122 170 171 123
f 123 171 172 124
f 124 172 173 125
f 125 173 174 126
f 126 174 175 127
f 127 175 176 128
f 128 176 177 129
f 129 177 178 130
f 130 178 179 131
f 131 179 180 132
f 132 180 181 133
f 133 181 182 134
f 134 182 183 135
f 135 183 184 136
f 136 184 185 137
f 137 185 186 138
f 138 186 187 139
f 139 187 188 140
f 140 188 189 141
f 141 189 190 142
f 142 190 191 143
f 143 191 192 144
f 144 192 193 145
f 145 193 146 98
f 146 194 195 147
f 147 195 196 148
f 148 196 197 149
f 149 197 198 150
f 150 198 199 151
f 151 199 200 152
f 152 200 201 153
f 153 201 202 154
f 154 202 203 155
f 155 203 204 156
f 156 204 205 157
f 157 205 206 158
f 158 206 207 159
f 159 207 208 160
f 160 208 209 161
f 161 209 210 162
f 162 210 211 163
f 163 211 212 164
f 164 212 213 165
f 165 213 214 166
f 166 214 215 167
f 167 215 216 168
f 168 216 217 169
f 169 217 218 170
f 170 218 219 171
f 171 219 220 172
f 172 220 221 173
f 173 221 222 174
f 174 222 223 175
f 175 223 224 176
f 176 224 225 177
f 177 225 226 178
f 178 226 227 179
f 179 227 228 180
f 180 228 229 181
f 181 229 230 182
f 182 230 231 183
f 183 231 232 184
f 184 232 233 185
f 185 233 234 186
f 186 234 235 187
f 187 235 236 188
f 188 236 237 189
f 189 237 238 190
f 190 238 239 191
f 191 239 240 192
f 192 240 241 193
f 193 241 194 146
f 194 242 243 195
f 195 243 244 196
f 196 244 245 197
f 197 245 246 198
f 198 246 247 199
f 199 247 248 200
f 200 248 249 201
f 201 249 250 202
f 202 250 251 203
f 203 251 252 204
f 204 252 253 205
f 205 253 254 206
f 206 254 255 207
f 207 255 256 208
f 208 256 257 209
f 209 257 258 210
f 210 258 259 211
f 211 259 260 212
f 212 260 261 213
f 213 261 262 214
f 214 262 263 215
f 215 263 264 216
f 216 264 265 217
f 217 265 266 218
f 218 266 267 219
f 219 267 268 220
f 220 268 269 221
f 221 269 270 222
f 222 270 271 223
f 223 271 272 224
f 224 272 273 225
f 225 273 274 226
f 226 274 275 227
f 227 275 276 228
f 228 276 277 229
f 229 277 278 230
f 230 278 279 231
f 231 279 280 232
f 232 280 281 233
f 233 281 282 234
f 234 282 283 235
f 235 283 284 236
f 236 284 285 237
f 237 285 286 238
f 238 286 287 239
f 239 287 288 240
f 240 288 289 241
f 241 289 242 194
f 242 290 291 243
f 243 291 292 244
f 244 292 293 245
f 245 293 294 246
f 246 294 295 247
f 247 295 296 248
f 248 296 297 249
f 249 297 298 250
f 250 298 299 251
f 251 299 300 252
f 252 300 301 253
f 253 301 302 254
f 254 302 303 255
f 255 303 304 256
f 256 304 305 257
f 257 305 306 258
f 258 306 307 259
f 259 307 308 260
f 260 308 309 261
f 261 309 310 262
f 262 310 311 263
f 263 311 312 264
f 264 312 313 265
f 265 313 314 266
f 266 314 315 267
f 267 315 316 268
f 268 316 317 269
f 269 317 318 270
f 270 318 319 271
f 271 319 320 272
f 272 320 321 273
f 273 321 322 274
f 274 322 323 275
f 275 323 324 276
f 276 324 325 277
f 277 325 326 278
f 278 326 327 279
f 279 327 328 280
f 280 328 329 281
f 281 329 330 282
f 282 330 331 283
f 283 331 332 284
f 284 332 333 285
f 285 333 334 286
f 286 334 335 287
f 287 335 336 288
f 288 336 337 289
f 289 337 290 242
f 290 338 339 291
f 291 339 340 292
f 292 340 341 293
f 293 341 342 294
f 294 342 343 295
f 295 343 344 296
f 296 344 345 297
f 297 345 346 298
f 298 346 347 299
f 299 347 348 300
f 300 348 349 301
f 301 349 350 302
f 302 350 351 303
f 303 351 352 304
f 304 352 353 305
f 305 353 354 306
f 306 354 355 307
f 307 355 356 308
f 308 356 357 309
f 309 357 358 310
f 310 358 359 311
f 311 359 360 312
f 312 360 361 313
f 313 361 362 314
f 314 362 363 315
f 315 363 364 316
f 316 364 365 317
f 317 365 366 318
f 318 366 367 319
f 319 367 368 320
f 320 368 369 321
f 321 369 370 322
f 322 370 371 323
f 323 371 372 324
f 324 372 373 325
f 325 373 374 326
f 326 374 375 327
f 327 375 376 328
f 328 376 377 329
f 329 377 378 330
f 330 378 379 331
f 331 379 380 332
f 332 380 381 333
f 333 381 382 334
f 334 382 383 335
f 335 383 384 336
f 336 384 385 337
f 337 385 338 290
f 338 386 387 339
f 339 387 388 340
f 340 388 389 341
f 341 389 390 342
f 342 390 391 343
f 343 391 392 344
f 344 392 393 345
f 345 393 394 346
f 346 394 395 347
f 347 395 396 348
f 348 396 397 349
f 349 397 398 350
f 350 398 399 351
f 351 399 400 352
f 352 400 401 353
f 353 401 402 354
f 354 402 403 355
f 355 403 404 356
f 356 404 405 357
f 357 405 406 358
f 358 406 407 359
f 359 407 408 360
f 360 408 409 361
f 361 409 410 362
f 362 410 411 363
f 363 411 412 364
f 364 412 413 365
f 365 413 414 366
f 366 414 415 367
f 367 415 416 368
f 368 416 417 369
f 369 417 418 370
f 370 418 419 371
f 371 419 420 372
f 372 420 421 373
f 373 421 422 374
f 374 422 423 375
f 375 423 424 376
f 376 424 425 377
f 377 425 426 378
f 378 426 427 379
f 379 427 428 380
f 380 428 429 381
f 381 429 430 382
f 382 430 431 383
f 383 431 432 384
f 384 432 433 385
f 385 433 386 338
f 386 434 435 387
f 387 435 436 388
f 388 436 437 389
f 389 437 438 390
f 390 438 439 391
f 391 439 440 392
f 392 440 441 393
f 393 441 442 394
f 394 442 443 395
f 395 443 444 396
f 396 444 445 397
f 397 445 446 398
f 398 446 447 399
f 399 447 448 400
f 400 448 449 401
f 401 449 450 402
f 402 450 451 403
f 403 451 452 404
f 404 452 453 405
f 405 453 454 406
f 406 454 455 407
f 407 455 456 408
f 408 456 457 409
f 409 457 458 410
f 410 458 459 411
f 411 459 460 412
f 412 460 461 413
f 413 461 462 414
f 414 462 463 415
f 415 463 464 416
f 416 464 465 417
f 417 465 466 418
f 418 466 467 419
f 419 467 468 420
f 420 468 469 421
f 421 469 470 422
f 422 470 471 423
f 423 471 472 424
f 424 472 473 425
f 425 473 474 426
f 426 474 475 427
f 427 475 476 428
f 428 476 477 429
f 429 477 478 430
f 430 478 479 431
f 431 479 480 432
f 432 480 481 433
f 433 481 434 386
f 434 482 483 435
f 435 483 484 436
f 436 484 485 437
f 437 485 486 438
f 438 486 487 439
f 439 487 488 440
f 440 488 489 441
f 441 489 490 442
f 442 490 491 443
f 443 491 492 444
f 444 492 493 445
f 445 493 494 446
f 446 494 495 447
f 447 495 496 448
f 448 496 497 449
f 449 497 498 450
f 450 498 499 451
f 451 499 500 452
f 452 500 501 453
f 453 501 502 454
f 454 502 503 455
f 455 503 504 456
f 456 504 505 457
f 457 505 506 458
f 458 506 507 459
f 459 507 508 460
f 460 508 509 461
f 461 509 510 462
f 462 510 511 463
f 463 511 512 464
f 464 512 513 465
f 465 513 514 466
f 466 514 515 467
f 467 515 516 468
f 468 516 517 469
f 469 517 518 470
f 470 518 519 471
f 471 519 520 472
f 472 520 521 473
f 473 521 522 474
f 474 522 523 475
f 475 523 524 476
f 476 524 525 477
f 477 525 526 478
f 478 526 527 479
f 479 527 528 480
f 480 528 529 481
f 481 529 482 434
f 962 1106 1107 963
f 963 1107 1108 964
f 964 1108 1109 965
f 965 1109 1110 966
f 966 1110 1111 967
f 967 1111 1112 968
f 968 1112 1113 969
f 969 1113 1114 970
f 970 1114 1115 971
f 971 1115 1116 972
f 972 1116 1117 973
f 973 1117 1118 974
f 974 1118 1119 975
f 975 1119 1120 976
f 976 1120 1121 977
f 977 1121 1122 978
f 978 1122 1123 979
f 979 1123 1124 980
f 980 1124 1125 981
f 981 1125 1126 982
f 982 1126 1127 983
f 983 1127 1128 984
f 984 1128 1129 985
f 985 1129 1130 986
f 986 1130 1131 987
f 987 1131 1132 988
f 988 1132 1133 989
f 989 1133 1134 990
f 990 1134 1135 991
f 991 1135 1136 992
f 992 1136 1137 993
f 993 1137 1138 994
f 994 1138 1139 995
f 995 1139 1140 996
f 996 1140 1141 997
f 997 1141 1142 998
f 998 1142 1143 999
f 999 1143 1144 1000
f 1000 1144 1145 1001
f 1001 1145 1146 1002
f 1002 1146 1147 1003
f 1003 1147 1148 1004
f 1004 1148 1149 1005
f 1005 1149 1150 1006
f 1006 1150 1151 1007
f 1007 1151 1152 1008
f 1008 1152 1153 1009
f 1009 1153 1154 1010
f 1010 1154 1155 1011
f 1011 1155 1156 1012
f 1012 1156 1157 1013
f 1013 1157 1158 1014
f 1014 1158 1159 1015
f 1015 1159 1160 1016
f 1016 1160 1161 1017
f 1017 1161 1162 1018
f 1018 1162 1163 1019
f 1019 1163 1164 1020
f 1020 1164 1165 1021
f 1021 1165 1166 1022
f 1022 1166 1167 1023
f 1023 1167 1168 1024
f 1024 1168 1169 1025
f 1025 1169 1170 1026
f 1026 1170 1171 1027
f 1027 1171 1172 1028
f 1028 1172 1173 1029
f 1029 1173 1174 1030
f 1030 1174 1175 1031
f 1031 1175 1176 1032
f 1032 1176 1177 1033
f 1033 1177 1178 1034
f 1034 1178 1179 1035
f 1035 1179 1180 1036
f 1036 1180 1181 1037
f 1037 1181 1182 1038
f 1038 1182 1183 1039
f 1039 1183 1184 1040
f 1040 1184 1185 1041
f 1041 1185 1186 1042
f 1042 1186 1187 1043
f 1043 1187 1188 1044
f 1044 1188 1189 1045
f 1045 1189 1190 1046
f 1046 1190 1191 1047
f 1047 1191 1192 1048
f 1048 1192 1193 1049
f 1049 1193 1194 1050
f 1050 1194 1195 1051
f 1051 1195 1196 1052
f 1052 1196 1197 1053
f 1053 1197 1198 1054
f 1054 1198 1199 1055
f 1055 1199 1200 1056
f 1056 1200 1201 1057
f 1057 1201 1202 1058
f 1058 1202 1203 1059
f 1059 1203 1204 1060
f 1060 1204 1205 1061
f 1061 1205 1206 1062
f 1062 1206 1207 1063
f 1063 1207 1208 1064
f 1064 1208 1209 1065
f 1065 1209 1210 1066
f 1066 1210 1211 1067
f 1067 1211 1212 1068
f 1068 1212 1213 1069
f 1069 1213 1214 1070
f 1070 1214 1215 1071
f 1071 1215 1216 1072
f 1072 1216 1217 1073
f 1073 1217 1218 1074
f 1074 1218 1219 1075
f 1075 1219 1220 1076
f 1076 1220 1221 1077
f 1077 1221 1222 1078
f 1078 1222 1223 1079
f 1079 1223 1224 1080
f 1080 1224 1225 1081
f 1081 1225 1226 1082
f 1082 1226 1227 1083
f 1083 1227 1228 1084
f 1084 1228 1229 1085
f 1085 1229 1230 1086
f 1086 1230 1231 1087
f 1087 1231 1232 1088
f 1088 1232 1233 1089
f 1089 1233 1234 1090
f 1090 1234 1235 1091
f 1091 1235 1236 1092
f 1092 1236 1237 1093
f 1093 1237 1238 1094
f 1094 1238 1239 1095
f 1095 1239 1240 1096
f 1096 1240 1241 1097
f 1097 1241 1242 1098
f 1098 1242 1243 1099
f 1099 1243 1244 1100
f 1100 1244 1245 1101
f 1101 1245 1246 1102
f 1102 1246 1247 1103
f 1103 1247 1248 1104
f 1104 1248 1249 1105
f 1105 1249 1106 962
f 1106 1250 1251 1107
f 1107 1251 1252 1108
f 1108 1252 1253 1109
f 1109 1253 1254 1110
f 1110 1254 1255 1111
f 1111 1255 1256 1112
f 1112 1256 1257 1113
f 1113 1257 1258 1114
f 1114 1258 1259 1115
f 1115 1259 1260 1116
f 1116 1260 1261 1117
f 1117 1261 1262 1118
f 1118 1262 1263 1119
f 1119 1263 1264 1120
f 1120 1264 1265 1121
f 1121 1265 1266 1122
f 1122 1266 1267 1123
f 1123 1267 1268 1124
f 1124 1268 1269 1125
f 1125 1269 1270 1126
f 1126 1270 1271 1127
f 1127 1271 1272 1128
f 1128 1272 1273 1129
f 1129 1273 1274 1130
f 1130 1274 1275 1131
f 1131 1275 1276 1132
f 1132 1276 1277 1133
f 1133 1277 1278 1134
f 1134 1278 1279 1135
f 1135 1279 1280 1136
f 1136 1280 1281 1137
f 1137 1281 1282 1138
f 1138 1282 1283 1139
f 1139 1283 1284 1140
f 1140 1284 1285 1141
f 1141 1285 1286 1142
f 1142 1286 1287 1143
f 1143 1287 1288 1144
f 1144 1288 1289 1145
f 1145 1289 1290 1146
f 1146 1290 1291 1147
f 1147 1291 1292 1148
f 1148 1292 1293 1149
f 1149 1293 1294 1150
f 1150 1294 1295 1151
f 1151 1295 1296 1152
f 1152 1296 1297 1153
f 1153 1297 1298 1154
f 1154 1298 1299 1155
f 1155 1299 1300 1156
f 1156 1300 1301 1157
f 1157 1301 1302 1158
f 1158 1302 1303 1159
f 1159 1303 1304 1160
f 1160 1304 1305 1161
f 1161 1305 1306 1162
f 1162 1306 1307 1163
f 1163 1307 1308 1164
f 1164 1308 1309 1165
f 1165 1309 1310 1166
f 1166 1310 1311 1167
f 1167 1311 1312 1168
f 1168 1312 1313 1169
f 1169 1313 1314 1170
f 1170 1314 1315 1171
f 1171 1315 1316 1172
f 1172 1316 1317 1173
f 1173 1317 1318 1174
f 1174 1318 1319 1175
f 1175 1319 1320 1176
f 1176 1320 1321 1177
f 1177 1321 1322 1178
f 1178 1322 1323 1179
f 1179 1323 1324 1180
f 1180 1324 1325 1181
f 1181 1325 1326 1182
f 1182 1326 1327 1183
f 1183 1327 1328 1184
f 1184 1328 1329 1185
f 1185 1329 1330 1186
f 1186 1330 1331 1187
f 1187 1331 1332 1188
f 1188 1332 1333 1189
f 1189 1333 1334 1190
f 1190 1334 1335 1191
f 1191 1335 1336 1192
f 1192 1336 1337 1193
f 1193 1337 1338 1194
f 1194 1338 1339 1195
f 1195 1339 1340 1196
f 1196 1340 1341 1197
f 1197 1341 1342 1198
f 1198 1342 1343 1199
f 1199 1343 1344 1200
f 1200 1344 1345 1201
f 1201 1345 1346 1202
f 1202 1346 1347 1203
f 1203 1347 1348 1204
f 1204 1348 1349 1205
f 1205 1349 1350 1206
f 1206 1350 1351 1207
f 1207 1351 1352 1208
f 1208 1352 1353 1209
f 1209 1353 1354 1210
f 1210 1354 1355 1211
f 1211 1355 1356 1212
f 1212 1356 1357 1213
f 1213 1357 1358 1214
f 1214 1358 1359 1215
f 1215 1359 1360 1216
f 1216 1360 1361 1217
f 1217 1361 1362 1218
f 1218 1362 1363 1219
f 1219 1363 1364 1220
f 1220 1364 1365 1221
f 1221 1365 1366 1222
f 1222 1366 1367 1223
f 1223 1367 1368 1224
f 1224 1368 1369 1225
f 1225 1369 1370 1226
f 1226 1370 1371 1227
f 1227 1371 1372 1228
f 1228 1372 1373 1229
f 1229 1373 1374 1230
f 1230 1374 1375 1231
f 1231 1375 1376 1232
f 1232 1376 1377 1233
f 1233 1377 1378 1234
f 1234 1378 1379 1235
f 1235 1379 1380 1236
f 1236 1380 1381 1237
f 1237 1381 1382 1238
f 1238 1382 1383 1239
f 1239 1383 1384 1240
f 1240 1384 1385 1241
f 1241 1385 1386 1242
f 1242 1386 1387 1243
f 1243 1387 1388 1244
f 1244 1388 1389 1245
f 1245 1389 1390 1246
f 1246 1390 1391 1247
f 1247 1391 1392 1248
f 1248 1392 1393 1249
f 1249 1393 1250 1106
f 1250 1394 1395 1251
f 1251 1395 1396 1252
f 1252 1396 1397 1253
f 1253 1397 1398 1254
f 1254 1398 1399 1255
f 1255 1399 1400 1256
f 1256 1400 1401 1257
f 1257 1401 1402 1258
f 1258 1402 1403 1259
f 1259 1403 1404 1260
f 1260 1404 1405 1261
f 1261 1405 1406 1262
f 1262 1406 1407 1263
f 1263 1407 1408 1264
f 1264 1408 1409 1265
f 1265 1409 1410 1266
f 1266 1410 1411 1267
f 1267 1411 1412 1268
f 1268 1412 1413 1269
f 1269 1413 1414 1270
f 1270 1414 1415 1271
f 1271 1415 1416 1272
f 1272 1416 1417 1273
f 1273 1417 1418 1274
f 1274 1418 1419 1275
f 1275 1419 1420 1276
f 1276 1420 1421 1277
f 1277 1421 1422 1278
f 1278 1422 1423 1279
f 1279 1423 1424 1280
f 1280 1424 1425 1281
f 1281 1425 1426 1282
f 1282 1426 1427 1283
f 1283 1427 1428 1284
f 1284 1428 1429 1285
f 1285 1429 1430 1286
f 1286 1430 1431 1287
f 1287 1431 1432 1288
f 1288 1432 1433 1289
f 1289 1433 1434 1290
f 1290 1434 1435 1291
f 1291 1435 1436 1292
f 1292 1436 1437 1293
f 1293 1437 1438 1294
f 1294 1438 1439 1295
f 1295 1439 1440 1296
f 1296 1440 1441 1297
f 1297 1441 1442 1298
f 1298 1442 1443 1299
f 1299 1443 1444 1300
f 1300 1444 1445 1301
f 1301 1445 1446 1302
f 1302 1446 1447 1303
f 1303 1447 1448 1304
f 1304 1448 1449 1305
f 1305 1449 1450 1306
f 1306 1450 1451 1307
f 1307 1451 1452 1308
f 1308 1452 1453 1309
f 1309 1453 1454 1310
f 1310 1454 1455 1311
f 1311 1455 1456 1312
f 1312 1456 1457 1313
f 1313 1457 1458 1314
f 1314 1458 1459 1315
f 1315 1459 1460 1316
f 1316 1460 1461 1317
f 1317 1461 1462 1318
f 1318 1462 1463 1319
f 1319 1463 1464 1320
f 1320 1464 1465 1321
f 1321 1465 1466 1322
f 1322 1466 1467 1323
f 1323 1467 1468 1324
f 1324 1468 1469 1325
f 1325 1469 1470 1326
f 1326 1470 1471 1327
f 1327 1471 1472 1328
f 1328 1472 1473 1329
f 1329 1473 1474 1330
f 1330 1474 1475 1331
f 1331 1475 1476 1332
f 1332 1476 1477 1333
f 1333 1477 1478 1334
f 1334 1478 1479 1335
f 1335 1479 1480 1336
f 1336 1480 1481 1337
f 1337 1481 1482 1338
f 1338 1482 1483 1339
f 1339 1483 1484 1340
f 1340 1484 1485 1341
f 1341 1485 1486 1342
f 1342 1486 1487 1343
f 1343 1487 1488 1344
f 1344 1488 1489 1345
f 1345 1489 1490 1346
f 1346 1490 1491 1347
f 1347 1491 1492 1348
f 1348 1492 1493 1349
f 1349 1493 1494 1350
f 1350 1494 1495 1351
f 1351 1495 1496 1352
f 1352 1496 1497 1353
f 1353 1497 1498 1354
f 1354 1498 1499 1355
f 1355 1499 1500 1356
f 1356 1500 1501 1357
f 1357 1501 1502 1358
f 1358 1502 1503 1359
f 1359 1503 1504 1360
f 1360 1504 1505 1361
f 1361 1505 1506 1362
f 1362 1506 1507 1363
f 1363 1507 1508 1364
f 1364 1508 1509 1365
f 1365 1509 1510 1366
f 1366 1510 1511 1367
f 1367 1511 1512 1368
f 1368 1512 1513 1369
f 1369 1513 1514 1370
f 1370 1514 1515 1371
f 1371 1515 1516 1372
f 1372 1516 1517 1373
f 1373 1517 1518 1374
f 1374 1518 1519 1375
f 1375 1519 1520 1376
f 1376 1520 1521 1377
f 1377 1521 1522 1378
f 1378 1522 1523 1379
f 1379 1523 1524 1380
f 1380 1524 1525 1381
f 1381 1525 1526 1382
f 1382 1526 1527 1383
f 1383 1527 1528 1384
f 1384 1528 1529 1385
f 1385 1529 1530 1386
f 1386 1530 1531 1387
f 1387 1531 1532 1388
f 1388 1532 1533 1389
f 1389 1533 1534 1390
f 1390 1534 1535 1391
f 1391 1535 1536 1392
f 1392 1536 1537 1393
f 1393 1537 1394 1250
f 1394 1538 1539 1395
f 1395 1539 1540 1396
f 1396 1540 1541 1397
f 1397 1541 1542 1398
f 1398 1542 1543 1399
f 1399 1543 1544 1400
f 1400 1544 1545 1401
f 1401 1545 1546 1402
f 1402 1546 1547 1403
f 1403 1547 1548 1404
f 1404 1548 1549 1405
f 1405 1549 1550 1406
f 1406 1550 1551 1407
f 1407 1551 1552 1408
f 1408 1552 1553 1409
f 1409 1553 1554 1410
f 1410 1554 1555 1411
f 1411 1555 1556 1412
f 1412 1556 1557 1413
f 1413 1557 1558 1414
f 1414 1558 1559 1415
f 1415 1559 1560 1416
f 1416 1560 1561 1417
f 1417 1561 1562 1418
f 1418 1562 1563 1419
f 1419 1563 1564 1420
f 1420 1564 1565 1421
f 1421 1565 1566 1422
f 1422 1566 1567 1423
f 1423 1567 1568 1424
f 1424 1568 1569 1425
f 1425 1569 1570 1426
f 1426 1570 1571 1427
f 1427 1571 1572 1428
f 1428 1572 1573 1429
f 1429 1573 1574 1430
f 1430 1574 1575 1431
f 1431 1575 1576 1432
f 1432 1576 1577 1433
f 1433 1577 1578 1434
f 1434 1578 1579 1435
f 1435 1579 1580 1436
f 1436 1580 1581 1437
f 1437 1581 1582 1438
f 1438 1582 1583 1439
f 1439 1583 1584 1440
f 1440 1584 1585 1441
f 1441 1585 1586 1442
f 1442 1586 1587 1443
f 1443 1587 1588 1444
f 1444 1588 1589 1445
f 1445 1589 1590 1446
f 1446 1590 1591 1447
f 1447 1591 1592 1448
f 1448 1592 1593 1449
f 1449 1593 1594 1450
f 1450 1594 1595 1451
f 1451 1595 1596 1452
f 1452 1596 1597 1453
f 1453 1597 1598 1454
f 1454 1598 1599 1455
f 1455 1599 1600 1456
f 1456 1600 1601 1457
f 1457 1601 1602 1458
f 1458 1602 1603 1459
f 1459 1603 1604 1460
f 1460 1604 1605 1461
f 1461 1605 1606 1462
f 1462 1606 1607 1463
f 1463 1607 1608 1464
f 1464 1608 1609 1465
f 1465 1609 1610 1466
f 1466 1610 1611 1467
f 1467 1611 1612 1468
f 1468 1612 1613 1469
f 1469 1613 1614 1470
f 1470 1614 1615 1471
f 1471 1615 1616 1472
f 1472 1616 1617 1473
f 1473 1617 1618 1474
f 1474 1618 1619 1475
f 1475 1619 1620 1476
f 1476 1620 1621 1477
f 1477 1621 1622 1478
f 1478 1622 1623 1479
f 1479 1623 1624 1480
f 1480 1624 1625 1481
f 1481 1625 1626 1482
f 1482 1626 1627 1483
f 1483 1627 1628 1484
f 1484 1628 1629 1485
f 1485 1629 1630 1486
f 1486 1630 1631 1487
f 1487 1631 1632 1488
f 1488 1632 1633 1489
f 1489 1633 1634 1490
f 1490 1634 1635 1491
f 1491 1635 1636 1492
f 1492 1636 1637 1493
f 1493 1637 1638 1494
f 1494 1638 1639 1495
f 1495 1639 1640 1496
f 1496 1640 1641 1497
f 1497 1641 1642 1498
f 1498 1642 1643 1499
f 1499 1643 1644 1500
f 1500 1644 1645 1501
f 1501 1645 1646 1502
f 1502 1646 1647 1503
f 1503 1647 1648 1504
f 1504 1648 1649 1505
f 1505 1649 1650 1506
f 1506 1650 1651 1507
f 1507 1651 1652 1508
f 1508 1652 1653 1509
f 1509 1653 1654 1510
f 1510 1654 1655 1511
f 1511 1655 1656 1512
f 1512 1656 1657 1513
f 1513 1657 1658 1514
f 1514 1658 1659 1515
f 1515 1659 1660 1516
f 1516 1660 1661 1517
f 1517 1661 1662 1518
f 1518 1662 1663 1519
f 1519 1663 1664 1520
f 1520 1664 1665 1521
f 1521 1665 1666 1522
f 1522 1666 1667 1523
f 1523 1667 1668 1524
f 1524 1668 1669 1525
f 1525 1669 1670 1526
f 1526 1670 1671 1527
f 1527 1671 1672 1528
f 1528 1672 1673 1529
f 1529 1673 1674 1530
f 1530 1674 1675 1531
f 1531 1675 1676 1532
f 1532 1676 1677 1533
f 1533 1677 1678 1534
f 1534 1678 1679 1535
f 1535 1679 1680 1536
f 1536 1680 1681 1537
f 1537 1681 1538 1394
f 1538 1682 1683 1539
f 1539 1683 1684 1540
f 1540 1684 1685 1541
f 1541 1685 1686 1542
f 1542 1686 1687 1543
f 1543 1687 1688 1544
f 1544 1688 1689 1545
f 1545 1689 1690 1546
f 1546 1690 1691 1547
f 1547 1691 1692 1548
f 1548 1692 1693 1549
f 1549 1693 1694 1550
f 1550 1694 1695 1551
f 1551 1695 1696 1552
f 1552 1696 1697 1553
f 1553 1697 1698 1554
f 1554 1698 1699 1555
f 1555 1699 1700 1556
f 1556 1700 1701 1557
f 1557 1701 1702 1558
f 1558 1702 1703 1559
f 1559 1703 1704 1560
f 1560 1704 1705 1561
f 1561 1705 1706 1562
f 1562 1706 1707 1563
f 1563 1707 1708 1564
f 1564 1708 1709 1565
f 1565 1709 1710 1566
f 1566 1710 1711 1567
f 1567 1711 1712 1568
f 1568 1712 1713 1569
f 1569 1713 1714 1570
f 1570 1714 1715 1571
f 1571 1715 1716 1572
f 1572 1716 1717 1573
f 1573 1717 1718 1574
f 1574 1718 1719 1575
f 1575 1719 1720 1576
f 1576 1720 1721 1577
f 1577 1721 1722 1578
f 1578 1722 1723 1579
f 1579 1723 1724 1580
f 1580 1724 1725 1581
f 1581 1725 1726 1582
f 1582 1726 1727 1583
f 1583 1727 1728 1584
f 1584 1728 1729 1585
f 1585 1729 1730 1586
f 1586 1730 1731 1587
f 1587 1731 1732 1588
f 1588 1732 1733 1589
f 1589 1733 1734 1590
f 1590 1734 1735 1591
f 1591 1735 1736 1592
f 1592 1736 1737 1593
f 1593 1737 1738 1594
f 1594 1738 1739 1595
f 1595 1739 1740 1596
f 1596 1740 1741 1597
f 1597 1741 1742 1598
f 1598 1742 1743 1599
f 1599 1743 1744 1600
f 1600 1744 1745 1601
f 1601 1745 1746 1602
f 1602 1746 1747 1603
f 1603 1747 1748 1604
f 1604 1748 1749 1605
f 1605 1749 1750 1606
f 1606 1750 1751 1607
f 1607 1751 1752 1608
f 1608 1752 1753 1609
f 1609 1753 1754 1610
f 1610 1754 1755 1611
f 1611 1755 1756 1612
f 1612 1756 1757 1613
f 1613 1757 1758 1614
f 1614 1758 1759 1615
f 1615 1759 1760 1616
f 1616 1760 1761 1617
f 1617 1761 1762 1618
f 1618 1762 1763 1619
f 1619 1763 1764 1620
f 1620 1764 1765 1621
f 1621 1765 1766 1622
f 1622 1766 1767 1623
f 1623 1767 1768 1624
f 1624 1768 1769 1625
f 1625 1769 1770 1626
f 1626 1770 1771 1627
f 1627 1771 1772 1628
f 1628 1772 1773 1629
f 1629 1773 1774 1630
f 1630 1774 1775 1631
f 1631 1775 1776 1632
f 1632 1776 1777 1633
f 1633 1777 1778 1634
f 1634 1778 1779 1635
f 1635 1779 1780 1636
f 1636 1780 1781 1637
f 1637 1781 1782 1638
f 1638 1782 1783 1639
f 1639 1783 1784 1640
f 1640 1784 1785 1641
f 1641 1785 1786 1642
f 1642 1786 1787 1643
f 1643 1787 1788 1644
f 1644 1788 1789 1645
f 1645 1789 1790 1646
f 1646 1790 1791 1647
f 1647 1791 1792 1648
f 1648 1792 1793 1649
f 1649 1793 1794 1650
f 1650 1794 1795 1651
f 1651 1795 1796 1652
f 1652 1796 1797 1653
f 1653 1797 1798 1654
f 1654 1798 1799 1655
f 1655 1799 1800 1656
f 1656 1800 1801 1657
f 1657 1801 1802 1658
f 1658 1802 1803 1659
f 1659 1803 1804 1660
f 1660 1804 1805 1661
f 1661 1805 1806 1662
f 1662 1806 1807 1663
f 1663 1807 1808 1664
f 1664 1808 1809 1665
f 1665 1809 1810 1666
f 1666 1810 1811 1667
f 1667 1811 1812 1668
f 1668 1812 1813 1669
f 1669 1813 1814 1670
f 1670 1814 1815 1671
f 1671 1815 1816 1672
f 1672 1816 1817 1673
f 1673 1817 1818 1674
f 1674 1818 1819 1675
f 1675 1819 1820 1676
f 1676 1820 1821 1677
f 1677 1821 1822 1678
f 1678 1822 1823 1679
f 1679 1823 1824 1680
f 1680 1824 1825 1681
f 1681 1825 1682 1538
f 1826 1683 1682
f 1826 1684 1683
f 1826 1685 1684
f 1826 1686 1685
f 1826 1687 1686
f 1826 1688 1687
f 1826 1689 1688
f 1826 1690 1689
f 1826 1691 1690
f 1826 1692 1691
f 1826 1693 1692
f 1826 1694 1693
f 1826 1695 1694
f 1826 1696 1695
f 1826 1697 1696
f 1826 1698 1697
f 1826 1699 1698
f 1826 1700 1699
f 1826 1701 1700
f 1826 1702 1701
f 1826 1703 1702
f 1826 1704 1703
f 1826 1705 1704
f 1826 1706 1705
f 1826 1707 1706
f 1826 1708 1707
f 1826 1709 1708
f 1826 1710 1709
f 1826 1711 1710
f 1826 1712 1711
f 1826 1713 1712
f 1826 1714 1713
f 1826 1715 1714
f 1826 1716 1715
f 1826 1717 1716
f 1826 1718 1717
f 1826 1719 1718
f 1826 1720 1719
f 1826 1721 1720
f 1826 1722 1721
f 1826 1723 1722
f 1826 1724 1723
f 1826 1725 1724
f 1826 1726 1725
f 1826 1727 1726
f 1826 1728 1727
f 1826 1729 1728
f 1826 1730 1729
f 1826 1731 1730
f 1826 1732 1731
f 1826 1733 1732
f 1826 1734 1733
f 1826 1735 1734
f 1826 1736 1735
f 1826 1737 1736
f 1826 1738 1737
f 1826 1739 1738
f 1826 1740 1739
f 1826 1741 1740
f 1826 1742 1741
f 1826 1743 1742
f 1826 1744 1743
f 1826 1745 1744
f 1826 1746 1745
f 1826 1747 1746
f 1826 1748 1747
f 1826 1749 1748
f 1826 1750 1749
f 1826 1751 1750
f 1826 1752 1751
f 1826 1753 1752
f 1826 1754 1753
f 1826 1755 1754
f 1826 1756 1755
f 1826 1757 1756
f 1826 1758 1757
f 1826 1759 1758
f 1826 1760 1759
f 1826 1761 1760
f 1826 1762 1761
f 1826 1763 1762
f 1826 1764 1763
f 1826 1765 1764
f 1826 1766 1765
f 1826 1767 1766
f 1826 1768 1767
f 1826 1769 1768
f 1826 1770 1769
f 1826 1771 1770
f 1826 1772 1771
f 1826 1773 1772
f 1826 1774 1773
f 1826 1775 1774
f 1826 1776 1775
f 1826 1777 1776
f 1826 1778 1777
f 1826 1779 1778
f 1826 1780 1779
f 1826 1781 1780
f 1826 1782 1781
f 1826 1783 1782
f 1826 1784 1783
f 1826 1785 1784
f 1826 1786 1785
f 1826 1787 1786
f 1826 1788 1787
f 1826 1789 1788
f 1826 1790 1789
f 1826 1791 1790
f 1826 1792 1791
f 1826 1793 1792
f 1826 1794 1793
f 1826 1795 1794
f 1826 1796 1795
f 1826 1797 1796
f 1826 1798 1797
f 1826 1799 1798
f 1826 1800 1799
f 1826 1801 1800
f 1826 1802 1801
f 1826 1803 1802
f 1826 1804 1803
f 1826 1805 1804
f 1826 1806 1805
f 1826 1807 1806
f 1826 1808 1807
f 1826 1809 1808
f 1826 1810 1809
f 1826 1811 1810
f 1826 1812 1811
f 1826 1813 1812
f 1826 1814 1813
f 1826 1815 1814
f 1826 1816 1815
f 1826 1817 1816
f 1826 1818 1817
f 1826 1819 1818
f 1826 1820 1819
f 1826 1821 1820
f 1826 1822 1821
f 1826 1823 1822
f 1826 1824 1823
f 1826 1825 1824
f 1826 1682 1825
f 1827 530 531
f 1827 531 532
f 1827 532 533
f 1827 533 534
f 1827 534 535
f 1827 535 536
f 1827 536 537
f 1827 537 538
f 1827 538 539
f 1827 539 540
f 1827 540 541
f 1827 541 542
f 1827 542 543
f 1827 543 544
f 1827 544 545
f 1827 545 546
f 1827 546 547
f 1827 547 548
f 1827 548 549
f 1827 549 550
f 1827 550 551
f 1827 551 552
f 1827 552 553
f 1827 553 554
f 1827 554 555
f 1827 555 556
f 1827 556 557
f 1827 557 558
f 1827 558 559
f 1827 559 560
f 1827 560 561
f 1827 561 562
f 1827 562 563
f 1827 563 564
f 1827 564 565
f 1827 565 566
f 1827 566 567
f 1827 567 568
f 1827 568 569
f 1827 569 570
f 1827 570 571
f 1827 571 572
f 1827 572 573
f 1827 573 574
f 1827 574 575
f 1827 575 576
f 1827 576 577
f 1827 577 578
f 1827 578 579
f 1827 579 580
f 1827 580 581
f 1827 581 582
f 1827 582 583
f 1827 583 584
f 1827 584 585
f 1827 585 586
f 1827 586 587
f 1827 587 588
f 1827 588 589
f 1827 589 590
f 1827 590 591
f 1827 591 592
f 1827 592 593
f 1827 593 594
f 1827 594 595
f 1827 595 596
f 1827 596 597
f 1827 597 598
f 1827 598 599
f 1827 599 600
f 1827 600 601
f 1827 601 602
f 1827 602 603
f 1827 603 604
f 1827 604 605
f 1827 605 606
f 1827 606 607
f 1827 607 608
f 1827 608 609
f 1827 609 610
f 1827 610 611
f 1827 611 612
f 1827 612 613
f 1827 613 614
f 1827 614 615
f 1827 615 616
f 1827 616 617
f 1827 617 618
f 1827 618 619
f 1827 619 620
f 1827 620 621
f 1827 621 622
f 1827 622 623
f 1827 623 624
f 1827 624 625
f 1827 625 626
f 1827 626 627
f 1827 627 628
f 1827 628 629
f 1827 629 630
f 1827 630 631
f 1827 631 632
f 1827 632 633
f 1827 633 634
f 1827 634 635
f 1827 635 636
f 1827 636 637
f 1827 637 638
f 1827 638 639
f 1827 639 640
f 1827 640 641
f 1827 641 642
f 1827 642 643
f 1827 643 644
f 1827 644 645
f 1827 645 646
f 1827 646 647
f 1827 647 648
f 1827 648 649
f 1827 649 650
f 1827 650 651
f 1827 651 652
f 1827 652 653
f 1827 653 654
f 1827 654 655
f 1827 655 656
f 1827 656 657
f 1827 657 658
f 1827 658 659
f 1827 659 660
f 1827 660 661
f 1827 661 662
f 1827 662 663
f 1827 663 664
f 1827 664 665
f 1827 665 666
f 1827 666 667
f 1827 667 668
f 1827 668 669
f 1827 669 670
f 1827 670 671
f 1827 671 672
f 1827 672 673
f 1827 673 530
usemtl Rim
f 530 674 675 531
f 531 675 676 532
f 532 676 677 533
f 533 677 678 534
f 534 678 679 535
f 535 679 680 536
f 536 680 681 537
f 537 681 682 538
f 538 682 683 539
f 539 683 684 540
f 540 684 685 541
f 541 685 686 542
f 542 686 687 543
f 543 687 688 544
f 544 688 689 545
f 545 689 690 546
f 546 690 691 547
f 547 691 692 548
f 548 692 693 549
f 549 693 694 550
f 550 694 695 551
f 551 695 696 552
f 552 696 697 553
f 553 697 698 554
f 554 698 699 555
f 555 699 700 556
f 556 700 701 557
f 557 701 702 558
f 558 702 703 559
f 559 703 704 560
f 560 704 705 561
f 561 705 706 562
f 562 706 707 563
f 563 707 708 564
f 564 708 709 565
f 565 709 710 566
f 566 710 711 567
f 567 711 712 568
f 568 712 713 569
f 569 713 714 570
f 570 714 715 571
f 571 715 716 572
f 572 716 717 573
f 573 717 718 574
f 574 718 719 575
f 575 719 720 576
f 576 720 721 577
f 577 721 722 578
f 578 722 723 579
f 579 723 724 580
f 580 724 725 581
f 581 725 726 582
f 582 726 727 583
f 583 727 728 584
f 584 728 729 585
f 585 729 730 586
f 586 730 731 587
f 587 731 732 588
f 588 732 733 589
f 589 733 734 590
f 590 734 735 591
f 591 735 736 592
f 592 736 737 593
f 593 737 738 594
f 594 738 739 595
f 595 739 740 596
f 596 740 741 597
f 597 741 742 598
f 598 742 743 599
f 599 743 744 600
f 600 744 745 601
f 601 745 746 602
f 602 746 747 603
f 603 747 748 604
f 604 748 749 605
f 605 749 750 606
f 606 750 751 607
f 607 751 752 608
f 608 752 753 609
f 609 753 754 610
f 610 754 755 611
f 611 755 756 612
f 612 756 757 613
f 613 757 758 614
f 614 758 759 615
f 615 759 760 616
f 616 760 761 617
f 617 761 762 618
f 618 762 763 619
f 619 763 764 620
f 620 764 765 621
f 621 765 766 622
f 622 766 767 623
f 623 767 768 624
f 624 768 769 625
f 625 769 770 626
f 626 770 771 627
f 627 771 772 628
f 628 772 773 629
f 629 773 774 630
f 630 774 775 631
f 631 775 776 632
f 632 776 777 633
f 633 777 778 634
f 634 778 779 635
f 635 779 780 636
f 636 780 781 637
f 637 781 782 638
f 638 782 783 639
f 639 783 784 640
f 640 784 785 641
f 641 785 786 642
f 642 786 787 643
f 643 787 788 644
f 644 788 789 645
f 645 789 790 646
f 646 790 791 647
f 647 791 792 648
f 648 792 793 649
f 649 793 794 650
f 650 794 795 651
f 651 795 796 652
f 652 796 797 653
f 653 797 798 654
f 654 798 799 655
f 655 799 800 656
f 656 800 801 657
f 657 801 802 658
f 658 802 803 659
f 659 803 804 660
f 660 804 805 661
f 661 805 806 662
f 662 806 807 663
f 663 807 808 664
f 664 808 809 665
f 665 809 810 666
f 666 810 811 667
f 667 811 812 668
f 668 812 813 669
f 669 813 814 670
f 670 814 815 671
f 671 815 816 672
f 672 816 817 673
f 673 817 674 530
f 674 818 819 675
f 675 819 820 676
f 676 820 821 677
f 677 821 822 678
f 678 822 823 679
f 679 823 824 680
f 680 824 825 681
f 681 825 826 682
f 682 826 827 683
f 683 827 828 684
f 684 828 829 685
f 685 829 830 686
f 686 830 831 687
f 687 831 832 688
f 688 832 833 689
f 689 833 834 690
f 690 834 835 691
f 691 835 836 692
f 692 836 837 693
f 693 837 838 694
f 694 838 839 695
f 695 839 840 696
f 696 840 841 697
f 697 841 842 698
f 698 842 843 699
f 699 843 844 700
f 700 844 845 701
f 701 845 846 702
f 702 846 847 703
f 703 847 848 704
f 704 848 849 705
f 705 849 850 706
f 706 850 851 707
f 707 851 852 708
f 708 852 853 709
f 709 853 854 710
f 710 854 855 711
f 711 855 856 712
f 712 856 857 713
f 713 857 858 714
f 714 858 859 715
f 715 859 860 716
f 716 860 861 717
f 717 861 862 718
f 718 862 863 719
f 719 863 864 720
f 720 864 865 721
f 721 865 866 722
f 722 866 867 723
f 723 867 868 724
f 724 868 869 725
f 725 869 870 726
f 726 870 871 727
f 727 871 872 728
f 728 872 873 729
f 729 873 874 730
f 730 874 875 731
f 731 875 876 732
f 732 876 877 733
f 733 877 878 734
f 734 878 879 735
f 735 879 880 736
f 736 880 881 737
f 737 881 882 738
f 738 882 883 739
f 739 883 884 740
f 740 884 885 741
f 741 885 886 742
f 742 886 887 743
f 743 887 888 744
f 744 888 889 745
f 745 889 890 746
f 746 890 891 747
f 747 891 892 748
f 748 892 893 749
f 749 893 894 750
f 750 894 895 751
f 751 895 896 752
f 752 896 897 753
f 753 897 898 754
f 754 898 899 755
f 755 899 900 756
f 756 900 901 757
f 757 901 902 758
f 758 902 903 759
f 759 903 904 760
f 760 904 905 761
f 761 905 906 762
f 762 906 907 763
f 763 907 908 764
f 764 908 909 765
f 765 909 910 766
f 766 910 911 767
f 767 911 912 768
f 768 912 913 769
f 769 913 914 770
f 770 914 915 771
f 771 915 916 772
f 772 916 917 773
f 773 917 918 774
f 774 918 919 775
f 775 919 920 776
f 776 920 921 777
f 777 921 922 778
f 778 922 923 779
f 779 923 924 780
f 780 924 925 781
f 781 925 926 782
f 782 926 927 783
f 783 927 928 784
f 784 928 929 785
f 785 929 930 786
f 786 930 931 787
f 787 931 932 788
f 788 932 933 789
f 789 933 934 790
f 790 934 935 791
f 791 935 936 792
f 792 936 937 793
f 793 937 938 794
f 794 938 939 795
f 795 939 940 796
f 796 940 941 797
f 797 941 942 798
f 798 942 943 799
f 799 943 944 800
f 800 944 945 801
f 801 945 946 802
f 802 946 947 803
f 803 947 948 804
f 804 948 949 805
f 805 949 950 806
f 806 950 951 807
f 807 951 952 808
f 808 952 953 809
f 809 953 954 810
f 810 954 955 811
f 811 955 956 812
f 812 956 957 813
f 813 957 958 814
f 814 958 959 815
f 815 959 960 816
f 816 960 961 817
f 817 961 818 674
f 818 962 963 819
f 819 963 964 820
f 820 964 965 821
f 821 965 966 822
f 822 966 967 823
f 823 967 968 824
f 824 968 969 825
f 825 969 970 826
f 826 970 971 827
f 827 971 972 828
f 828 972 973 829
f 829 973 974 830
f 830 974 975 831
f 831 975 976 832
f 832 976 977 833
f 833 977 978 834
f 834 978 979 835
f 835 979 980 836
f 836 980 981 837
f 837 981 982 838
f 838 982 983 839
f 839 983 984 840
f 840 984 985 841
f 841 985 986 842
f 842 986 987 843
f 843 987 988 844
f 844 988 989 845
f 845 989 990 846
f 846 990 991 847
f 847 991 992 848
f 848 992 993 849
f 849 993 994 850
f 850 994 995 851
f 851 995 996 852
f 852 996 997 853
f 853 997 998 854
f 854 998 999 855
f 855 999 1000 856
f 856 1000 1001 857
f 857 1001 1002 858
f 858 1002 1003 859
f 859 1003 1004 860
f 860 1004 1005 861
f 861 1005 1006 862
f 862 1006 1007 863
f 863 1007 1008 864
f 864 1008 1009 865
f 865 1009 1010 866
f 866 1010 1011 867
f 867 1011 1012 868
f 868 1012 1013 869
f 869 1013 1014 870
f 870 1014 1015 871
f 871 1015 1016 872
f 872 1016 1017 873
f 873 1017 1018 874
f 874 1018 1019 875
f 875 1019 1020 876
f 876 1020 1021 877
f 877 1021 1022 878
f 878 1022 1023 879
f 879 1023 1024 880
f 880 1024 1025 881
f 881 1025 1026 882
f 882 1026 1027 883
f 883 1027 1028 884
f 884 1028 1029 885
f 885 1029 1030 886
f 886 1030 1031 887
f 887 1031 1032 888
f 888 1032 1033 889
f 889 1033 1034 890
f 890 1034 1035 891
f 891 1035 1036 892
f 892 1036 1037 893
f 893 1037 1038 894
f 894 1038 1039 895
f 895 1039 1040 896
f 896 1040 1041 897
f 897 1041 1042 898
f 898 1042 1043 899
f 899 1043 1044 900
f 900 1044 1045 901
f 901 1045 1046 902
f 902 1046 1047 903
f 903 1047 1048 904
f 904 1048 1049 905
f 905 1049 1050 906
f 906 1050 1051 907
f 907 1051 1052 908
f 908 1052 1053 909
f 909 1053 1054 910
f 910 1054 1055 911
f 911 1055 1056 912
f 912 1056 1057 913
f 913 1057 1058 914
f 914 1058 1059 915
f 915 1059 1060 916
f 916 1060 1061 917
f 917 1061 1062 918
f 918 1062 1063 919
f 919 1063 1064 920
f 920 1064 1065 921
f 921 1065 1066 922
f 922 1066 1067 923
f 923 1067 1068 924
f 924 1068 1069 925
f 925 1069 1070 926
f 926 1070 1071 927
f 927 1071 1072 928
f 928 1072 1073 929
f 929 1073 1074 930
f 930 1074 1075 931
f 931 1075 1076 932
f 932 1076 1077 933
f 933 1077 1078 934
f 934 1078 1079 935
f 935 1079 1080 936
f 936 1080 1081 937
f 937 1081 1082 938
f 938 1082 1083 939
f 939 1083 1084 940
f 940 1084 1085 941
f 941 1085 1086 942
f 942 1086 1087 943
f 943 1087 1088 944
f 944 1088 1089 945
f 945 1089 1090 946
f 946 1090 1091 947
f 947 1091 1092 948
f 948 1092 1093 949
f 949 1093 1094 950
f 950 1094 1095 951
f 951 1095 1096 952
f 952 1096 1097 953
f 953 1097 1098 954
f 954 1098 1099 955
f 955 1099 1100 956
f 956 1100 1101 957
f 957 1101 1102 958
f 958 1102 1103 959
f 959 1103 1104 960
f 960 1104 1105 961
f 961 1105 962 818
