# Blender 5.0.1
# www.blender.org
mtllib beyblade_defense.mtl
o Defense
v 6.000000 12.979208 0.000000
v 5.948700 12.979208 -0.783200
v 5.795600 12.979208 -1.552900
v 5.543300 12.979208 -2.296100
v 5.196200 12.979208 -3.000000
v 4.760100 12.979208 -3.652600
v 4.242600 12.979207 -4.242600
v 3.652600 12.979207 -4.760100
v 3.000000 12.979207 -5.196200
v 2.296100 12.979207 -5.543300
v 1.552900 12.979207 -5.795600
v 0.783200 12.979207 -5.948700
v 0.000000 12.979207 -6.000000
v -0.783200 12.979207 -5.948700
v -1.552900 12.979207 -5.795600
v -2.296100 12.979207 -5.543300
v -3.000000 12.979207 -5.196200
v -3.652600 12.979207 -4.760100
v -4.242600 12.979207 -4.242600
v -4.760100 12.979208 -3.652600
v -5.196200 12.979208 -3.000000
v -5.543300 12.979208 -2.296100
v -5.795600 12.979208 -1.552900
v -5.948700 12.979208 -0.783200
v -6.000000 12.979208 0.000000
v -5.948700 12.979208 0.783200
v -5.795600 12.979208 1.552900
v -5.543300 12.979208 2.296100
v -5.196200 12.979208 3.000000
v -4.760100 12.979208 3.652600
v -4.242600 12.979209 4.242600
v -3.652600 12.979209 4.760100
v -3.000000 12.979209 5.196200
v -2.296100 12.979209 5.543300
v -1.552900 12.979209 5.795600
v -0.783200 12.979209 5.948700
v 0.000000 12.979209 6.000000
v 0.783200 12.979209 5.948700
v 1.552900 12.979209 5.795600
v 2.296100 12.979209 5.543300
v 3.000000 12.979209 5.196200
v 3.652600 12.979209 4.760100
v 4.242600 12.979209 4.242600
v 4.760100 12.979208 3.652600
v 5.196200 12.979208 3.000000
v 5.543300 12.979208 2.296100
v 5.795600 12.979208 1.552900
v 5.948700 12.979208 0.783200
v 4.500000 -0.020792 0.000002
v 4.461500 -0.020792 -0.587398
v 4.346700 -0.020792 -1.164698
v 4.157500 -0.020792 -1.722098
v 3.897100 -0.020792 -2.249998
v 3.570100 -0.020792 -2.739398
v 3.182000 -0.020792 -3.181998
v 2.739400 -0.020792 -3.570098
v 2.250000 -0.020792 -3.897098
v 1.722100 -0.020793 -4.157498
v 1.164700 -0.020793 -4.346699
v 0.587400 -0.020793 -4.461499
v 0.000000 -0.020793 -4.499999
v -0.587400 -0.020793 -4.461499
v -1.164700 -0.020793 -4.346699
v -1.722100 -0.020793 -4.157498
v -2.250000 -0.020792 -3.897098
v -2.739400 -0.020792 -3.570098
v -3.182000 -0.020792 -3.181998
v -3.570100 -0.020792 -2.739398
v -3.897100 -0.020792 -2.249998
v -4.157500 -0.020792 -1.722098
v -4.346700 -0.020792 -1.164698
v -4.461500 -0.020792 -0.587398
v -4.500000 -0.020792 0.000002
v -4.461500 -0.020792 0.587402
v -4.346700 -0.020792 1.164702
v -4.157500 -0.020792 1.722102
v -3.897100 -0.020792 2.250002
v -3.570100 -0.020792 2.739402
v -3.182000 -0.020792 3.182002
v -2.739400 -0.020792 3.570102
v -2.250000 -0.020792 3.897102
v -1.722100 -0.020792 4.157501
v -1.164700 -0.020791 4.346702
v -0.587400 -0.020791 4.461502
v 0.000000 -0.020791 4.500001
v 0.587400 -0.020791 4.461502
v 1.164700 -0.020791 4.346702
v 1.722100 -0.020792 4.157501
v 2.250000 -0.020792 3.897102
v 2.739400 -0.020792 3.570102
v 3.182000 -0.020792 3.182002
v 3.570100 -0.020792 2.739402
v 3.897100 -0.020792 2.250002
v 4.157500 -0.020792 1.722102
v 4.346700 -0.020792 1.164702
v 4.461500 -0.020792 0.587402
v 0.000000 12.979208 0.000000
v 0.000000 -0.020792 0.000002
v 24.000000 30.979208 -0.000002
v 23.794701 30.979208 -3.132602
v 23.182199 30.979208 -6.211702
v 22.173100 30.979206 -9.184402
v 20.784599 30.979206 -12.000002
v 19.040501 30.979206 -14.610302
v 16.970600 30.979206 -16.970602
v 14.610300 30.979206 -19.040503
v 12.000000 30.979206 -20.784601
v 9.184400 30.979206 -22.173101
v 6.211700 30.979206 -23.182201
v 3.132600 30.979206 -23.794703
v 0.000000 30.979206 -24.000002
v -3.132600 30.979206 -23.794703
v -6.211700 30.979206 -23.182201
v -9.184400 30.979206 -22.173101
v -12.000000 30.979206 -20.784601
v -14.610300 30.979206 -19.040503
v -16.970600 30.979206 -16.970602
v -19.040501 30.979206 -14.610302
v -20.784599 30.979206 -12.000002
v -22.173100 30.979206 -9.184402
v -23.182199 30.979208 -6.211702
v -23.794701 30.979208 -3.132602
v -24.000000 30.979208 -0.000002
v -23.794701 30.979208 3.132598
v -23.182199 30.979208 6.211698
v -22.173100 30.979210 9.184398
v -20.784599 30.979210 11.999998
v -19.040501 30.979210 14.610298
v -16.970600 30.979210 16.970598
v -14.610300 30.979210 19.040499
v -12.000000 30.979210 20.784597
v -9.184400 30.979210 22.173098
v -6.211700 30.979210 23.182198
v -3.132600 30.979210 23.794699
v 0.000000 30.979212 23.999998
v 3.132600 30.979210 23.794699
v 6.211700 30.979210 23.182198
v 9.184400 30.979210 22.173098
v 12.000000 30.979210 20.784597
v 14.610300 30.979210 19.040499
v 16.970600 30.979210 16.970598
v 19.040501 30.979210 14.610298
v 20.784599 30.979210 11.999998
v 22.173100 30.979210 9.184398
v 23.182199 30.979208 6.211698
v 23.794701 30.979208 3.132598
v 24.000000 12.979208 0.000000
v 23.794701 12.979208 -3.132600
v 23.182199 12.979207 -6.211700
v 22.173100 12.979207 -9.184400
v 20.784599 12.979207 -12.000000
v 19.040501 12.979206 -14.610300
v 16.970600 12.979206 -16.970600
v 14.610300 12.979206 -19.040501
v 12.000000 12.979205 -20.784599
v 9.184400 12.979205 -22.173100
v 6.211700 12.979205 -23.182199
v 3.132600 12.979205 -23.794701
v 0.000000 12.979205 -24.000000
v -3.132600 12.979205 -23.794701
v -6.211700 12.979205 -23.182199
v -9.184400 12.979205 -22.173100
v -12.000000 12.979205 -20.784599
v -14.610300 12.979206 -19.040501
v -16.970600 12.979206 -16.970600
v -19.040501 12.979206 -14.610300
v -20.784599 12.979207 -12.000000
v -22.173100 12.979207 -9.184400
v -23.182199 12.979207 -6.211700
v -23.794701 12.979208 -3.132600
v -24.000000 12.979208 0.000000
v -23.794701 12.979208 3.132600
v -23.182199 12.979209 6.211700
v -22.173100 12.979209 9.184400
v -20.784599 12.979210 12.000000
v -19.040501 12.979210 14.610300
v -16.970600 12.979210 16.970600
v -14.610300 12.979210 19.040501
v -12.000000 12.979211 20.784599
v -9.184400 12.979211 22.173100
v -6.211700 12.979211 23.182199
v -3.132600 12.979211 23.794701
v 0.000000 12.979211 24.000000
v 3.132600 12.979211 23.794701
v 6.211700 12.979211 23.182199
v 9.184400 12.979211 22.173100
v 12.000000 12.979211 20.784599
v 14.610300 12.979210 19.040501
v 16.970600 12.979210 16.970600
v 19.040501 12.979210 14.610300
v 20.784599 12.979210 12.000000
v 22.173100 12.979209 9.184400
v 23.182199 12.979209 6.211700
v 23.794701 12.979208 3.132600
v 0.000000 30.979208 -0.000002
v 0.000000 12.979208 0.000000
vn 0.9913 -0.1144 -0.0649
vn -0.0000 -1.0000 -0.0000
vn -0.0000 1.0000 -0.0000
vn 0.9744 -0.1144 -0.1938
vn 0.9407 -0.1144 -0.3193
vn 0.8910 -0.1144 -0.4394
vn 0.8260 -0.1144 -0.5519
vn 0.7469 -0.1144 -0.6550
vn 0.6550 -0.1144 -0.7469
vn 0.5519 -0.1144 -0.8260
vn 0.4394 -0.1144 -0.8910
vn 0.3193 -0.1144 -0.9407
vn 0.1938 -0.1144 -0.9744
vn 0.0649 -0.1144 -0.9913
vn -0.0649 -0.1144 -0.9913
vn -0.1938 -0.1144 -0.9744
vn -0.3193 -0.1144 -0.9407
vn -0.4394 -0.1144 -0.8910
vn -0.5519 -0.1144 -0.8260
vn -0.6550 -0.1144 -0.7469
vn -0.7469 -0.1144 -0.6550
vn -0.8260 -0.1144 -0.5519
vn -0.8910 -0.1144 -0.4394
vn -0.9407 -0.1144 -0.3193
vn -0.9744 -0.1144 -0.1938
vn -0.9913 -0.1144 -0.0649
vn -0.9913 -0.1144 0.0649
vn -0.9744 -0.1144 0.1938
vn -0.9407 -0.1144 0.3193
vn -0.8910 -0.1144 0.4394
vn -0.8260 -0.1144 0.5519
vn -0.7469 -0.1144 0.6550
vn -0.6550 -0.1144 0.7469
vn -0.5519 -0.1144 0.8260
vn -0.4394 -0.1144 0.8910
vn -0.3193 -0.1144 0.9407
vn -0.1938 -0.1144 0.9744
vn -0.0649 -0.1144 0.9913
vn 0.0649 -0.1144 0.9913
vn 0.1938 -0.1144 0.9744
vn 0.3193 -0.1144 0.9407
vn 0.4394 -0.1144 0.8910
vn 0.5519 -0.1144 0.8260
vn 0.6550 -0.1144 0.7469
vn 0.7469 -0.1144 0.6550
vn 0.8260 -0.1144 0.5519
vn 0.8910 -0.1144 0.4394
vn 0.9407 -0.1144 0.3193
vn 0.9744 -0.1144 0.1938
vn 0.9913 -0.1144 0.0649
vn 0.9979 -0.0000 -0.0654
vn 0.9808 -0.0000 -0.1951
vn 0.9469 -0.0000 -0.3214
vn 0.8969 -0.0000 -0.4423
vn 0.8315 -0.0000 -0.5556
vn 0.7518 -0.0000 -0.6593
vn 0.6593 -0.0000 -0.7518
vn 0.5556 -0.0000 -0.8315
vn 0.4423 -0.0000 -0.8969
vn 0.3214 -0.0000 -0.9469
vn 0.1951 -0.0000 -0.9808
vn 0.0654 -0.0000 -0.9979
vn -0.0654 -0.0000 -0.9979
vn -0.1951 -0.0000 -0.9808
vn -0.3214 -0.0000 -0.9469
vn -0.4423 -0.0000 -0.8969
vn -0.5556 -0.0000 -0.8315
vn -0.6593 -0.0000 -0.7518
vn -0.7518 -0.0000 -0.6593
vn -0.8315 -0.0000 -0.5556
vn -0.8969 -0.0000 -0.4423
vn -0.9469 -0.0000 -0.3214
vn -0.9808 -0.0000 -0.1951
vn -0.9979 -0.0000 -0.0654
vn -0.9979 -0.0000 0.0654
vn -0.9808 -0.0000 0.1951
vn -0.9469 -0.0000 0.3214
vn -0.8969 -0.0000 0.4423
vn -0.8315 -0.0000 0.5556
vn -0.7518 -0.0000 0.6593
vn -0.6593 -0.0000 0.7518
vn -0.5556 -0.0000 0.8315
vn -0.4423 -0.0000 0.8969
vn -0.3214 -0.0000 0.9469
vn -0.1951 -0.0000 0.9808
vn -0.0654 -0.0000 0.9979
vn 0.0654 -0.0000 0.9979
vn 0.1951 -0.0000 0.9808
vn 0.3214 -0.0000 0.9469
vn 0.4423 -0.0000 0.8969
vn 0.5556 -0.0000 0.8315
vn 0.6593 -0.0000 0.7518
vn 0.7518 -0.0000 0.6593
vn 0.8315 -0.0000 0.5556
vn 0.8969 -0.0000 0.4423
vn 0.9469 -0.0000 0.3214
vn 0.9808 -0.0000 0.1951
vn 0.9979 -0.0000 0.0654
s 0
f 1//1 49//1 50//1 2//1
f 97//2 2//2 1//2
f 98//3 49//3 50//3
f 2//4 50//4 51//4 3//4
f 97//2 3//2 2//2
f 98//3 50//3 51//3
f 3//5 51//5 52//5 4//5
f 97//2 4//2 3//2
f 98//3 51//3 52//3
f 4//6 52//6 53//6 5//6
f 97//2 5//2 4//2
f 98//3 52//3 53//3
f 5//7 53//7 54//7 6//7
f 97//2 6//2 5//2
f 98//3 53//3 54//3
f 6//8 54//8 55//8 7//8
f 97//2 7//2 6//2
f 98//3 54//3 55//3
f 7//9 55//9 56//9 8//9
f 97//2 8//2 7//2
f 98//3 55//3 56//3
f 8//10 56//10 57//10 9//10
f 97//2 9//2 8//2
f 98//3 56//3 57//3
f 9//11 57//11 58//11 10//11
f 97//2 10//2 9//2
f 98//3 57//3 58//3
f 10//12 58//12 59//12 11//12
f 97//2 11//2 10//2
f 98//3 58//3 59//3
f 11//13 59//13 60//13 12//13
f 97//2 12//2 11//2
f 98//3 59//3 60//3
f 12//14 60//14 61//14 13//14
f 97//2 13//2 12//2
f 98//3 60//3 61//3
f 13//15 61//15 62//15 14//15
f 97//2 14//2 13//2
f 98//3 61//3 62//3
f 14//16 62//16 63//16 15//16
f 97//2 15//2 14//2
f 98//3 62//3 63//3
f 15//17 63//17 64//17 16//17
f 97//2 16//2 15//2
f 98//3 63//3 64//3
f 16//18 64//18 65//18 17//18
f 97//2 17//2 16//2
f 98//3 64//3 65//3
f 17//19 65//19 66//19 18//19
f 97//2 18//2 17//2
f 98//3 65//3 66//3
f 18//20 66//20 67//20 19//20
f 97//2 19//2 18//2
f 98//3 66//3 67//3
f 19//21 67//21 68//21 20//21
f 97//2 20//2 19//2
f 98//3 67//3 68//3
f 20//22 68//22 69//22 21//22
f 97//2 21//2 20//2
f 98//3 68//3 69//3
f 21//23 69//23 70//23 22//23
f 97//2 22//2 21//2
f 98//3 69//3 70//3
f 22//24 70//24 71//24 23//24
f 97//2 23//2 22//2
f 98//3 70//3 71//3
f 23//25 71//25 72//25 24//25
f 97//2 24//2 23//2
f 98//3 71//3 72//3
f 24//26 72//26 73//26 25//26
f 97//2 25//2 24//2
f 98//3 72//3 73//3
f 25//27 73//27 74//27 26//27
f 97//2 26//2 25//2
f 98//3 73//3 74//3
f 26//28 74//28 75//28 27//28
f 97//2 27//2 26//2
f 98//3 74//3 75//3
f 27//29 75//29 76//29 28//29
f 97//2 28//2 27//2
f 98//3 75//3 76//3
f 28//30 76//30 77//30 29//30
f 97//2 29//2 28//2
f 98//3 76//3 77//3
f 29//31 77//31 78//31 30//31
f 97//2 30//2 29//2
f 98//3 77//3 78//3
f 30//32 78//32 79//32 31//32
f 97//2 31//2 30//2
f 98//3 78//3 79//3
f 31//33 79//33 80//33 32//33
f 97//2 32//2 31//2
f 98//3 79//3 80//3
f 32//34 80//34 81//34 33//34
f 97//2 33//2 32//2
f 98//3 80//3 81//3
f 33//35 81//35 82//35 34//35
f 97//2 34//2 33//2
f 98//3 81//3 82//3
f 34//36 82//36 83//36 35//36
f 97//2 35//2 34//2
f 98//3 82//3 83//3
f 35//37 83//37 84//37 36//37
f 97//2 36//2 35//2
f 98//3 83//3 84//3
f 36//38 84//38 85//38 37//38
f 97//2 37//2 36//2
f 98//3 84//3 85//3
f 37//39 85//39 86//39 38//39
f 97//2 38//2 37//2
f 98//3 85//3 86//3
f 38//40 86//40 87//40 39//40
f 97//2 39//2 38//2
f 98//3 86//3 87//3
f 39//41 87//41 88//41 40//41
f 97//2 40//2 39//2
f 98//3 87//3 88//3
f 40//42 88//42 89//42 41//42
f 97//2 41//2 40//2
f 98//3 88//3 89//3
f 41//43 89//43 90//43 42//43
f 97//2 42//2 41//2
f 98//3 89//3 90//3
f 42//44 90//44 91//44 43//44
f 97//2 43//2 42//2
f 98//3 90//3 91//3
f 43//45 91//45 92//45 44//45
f 97//2 44//2 43//2
f 98//3 91//3 92//3
f 44//46 92//46 93//46 45//46
f 97//2 45//2 44//2
f 98//3 92//3 93//3
f 45//47 93//47 94//47 46//47
f 97//2 46//2 45//2
f 98//3 93//3 94//3
f 46//48 94//48 95//48 47//48
f 97//2 47//2 46//2
f 98//3 94//3 95//3
f 47//49 95//49 96//49 48//49
f 97//2 48//2 47//2
f 98//3 95//3 96//3
f 48//50 96//50 49//50 1//50
f 97//2 1//2 48//2
f 98//3 96//3 49//3
f 99//51 147//51 148//51 100//51
f 195//3 99//3 100//3
f 196//2 148//2 147//2
f 100//52 148//52 149//52 101//52
f 195//3 100//3 101//3
f 196//2 149//2 148//2
f 101//53 149//53 150//53 102//53
f 195//3 101//3 102//3
f 196//2 150//2 149//2
f 102//54 150//54 151//54 103//54
f 195//3 102//3 103//3
f 196//2 151//2 150//2
f 103//55 151//55 152//55 104//55
f 195//3 103//3 104//3
f 196//2 152//2 151//2
f 104//56 152//56 153//56 105//56
f 195//3 104//3 105//3
f 196//2 153//2 152//2
f 105//57 153//57 154//57 106//57
f 195//3 105//3 106//3
f 196//2 154//2 153//2
f 106//58 154//58 155//58 107//58
f 195//3 106//3 107//3
f 196//2 155//2 154//2
f 107//59 155//59 156//59 108//59
f 195//3 107//3 108//3
f 196//2 156//2 155//2
f 108//60 156//60 157//60 109//60
f 195//3 108//3 109//3
f 196//2 157//2 156//2
f 109//61 157//61 158//61 110//61
f 195//3 109//3 110//3
f 196//2 158//2 157//2
f 110//62 158//62 159//62 111//62
f 195//3 110//3 111//3
f 196//2 159//2 158//2
f 111//63 159//63 160//63 112//63
f 195//3 111//3 112//3
f 196//2 160//2 159//2
f 112//64 160//64 161//64 113//64
f 195//3 112//3 113//3
f 196//2 161//2 160//2
f 113//65 161//65 162//65 114//65
f 195//3 113//3 114//3
f 196//2 162//2 161//2
f 114//66 162//66 163//66 115//66
f 195//3 114//3 115//3
f 196//2 163//2 162//2
f 115//67 163//67 164//67 116//67
f 195//3 115//3 116//3
f 196//2 164//2 163//2
f 116//68 164//68 165//68 117//68
f 195//3 116//3 117//3
f 196//2 165//2 164//2
f 117//69 165//69 166//69 118//69
f 195//3 117//3 118//3
f 196//2 166//2 165//2
f 118//70 166//70 167//70 119//70
f 195//3 118//3 119//3
f 196//2 167//2 166//2
f 119//71 167//71 168//71 120//71
f 195//3 119//3 120//3
f 196//2 168//2 167//2
f 120//72 168//72 169//72 121//72
f 195//3 120//3 121//3
f 196//2 169//2 168//2
f 121//73 169//73 170//73 122//73
f 195//3 121//3 122//3
f 196//2 170//2 169//2
f 122//74 170//74 171//74 123//74
f 195//3 122//3 123//3
f 196//2 171//2 170//2
f 123//75 171//75 172//75 124//75
f 195//3 123//3 124//3
f 196//2 172//2 171//2
f 124//76 172//76 173//76 125//76
f 195//3 124//3 125//3
f 196//2 173//2 172//2
f 125//77 173//77 174//77 126//77
f 195//3 125//3 126//3
f 196//2 174//2 173//2
f 126//78 174//78 175//78 127//78
f 195//3 126//3 127//3
f 196//2 175//2 174//2
f 127//79 175//79 176//79 128//79
f 195//3 127//3 128//3
f 196//2 176//2 175//2
f 128//80 176//80 177//80 129//80
f 195//3 128//3 129//3
f 196//2 177//2 176//2
f 129//81 177//81 178//81 130//81
f 195//3 129//3 130//3
f 196//2 178//2 177//2
f 130//82 178//82 179//82 131//82
f 195//3 130//3 131//3
f 196//2 179//2 178//2
f 131//83 179//83 180//83 132//83
f 195//3 131//3 132//3
f 196//2 180//2 179//2
f 132//84 180//84 181//84 133//84
f 195//3 132//3 133//3
f 196//2 181//2 180//2
f 133//85 181//85 182//85 134//85
f 195//3 133//3 134//3
f 196//2 182//2 181//2
f 134//86 182//86 183//86 135//86
f 195//3 134//3 135//3
f 196//2 183//2 182//2
f 135//87 183//87 184//87 136//87
f 195//3 135//3 136//3
f 196//2 184//2 183//2
f 136//88 184//88 185//88 137//88
f 195//3 136//3 137//3
f 196//2 185//2 184//2
f 137//89 185//89 186//89 138//89
f 195//3 137//3 138//3
f 196//2 186//2 185//2
f 138//90 186//90 187//90 139//90
f 195//3 138//3 139//3
f 196//2 187//2 186//2
f 139//91 187//91 188//91 140//91
f 195//3 139//3 140//3
f 196//2 188//2 187//2
f 140//92 188//92 189//92 141//92
f 195//3 140//3 141//3
f 196//2 189//2 188//2
f 141//93 189//93 190//93 142//93
f 195//3 141//3 142//3
f 196//2 190//2 189//2
f 142//94 190//94 191//94 143//94
f 195//3 142//3 143//3
f 196//2 191//2 190//2
f 143//95 191//95 192//95 144//95
f 195//3 143//3 144//3
f 196//2 192//2 191//2
f 144//96 192//96 193//96 145//96
f 195//3 144//3 145//3
f 196//2 193//2 192//2
f 145//97 193//97 194//97 146//97
f 195//3 145//3 146//3
f 196//2 194//2 193//2
f 146//98 194//98 147//98 99//98
f 195//3 146//3 99//3
f 196//2 147//2 194//2
