# Blender 5.0.1
# www.blender.org
mtllib beyblade_attack.mtl
o Attack_Spiky
v 5.000000 16.040833 0.000000
v 4.957200 16.040833 -0.652600
v 4.829600 16.040833 -1.294100
v 4.619400 16.040833 -1.913400
v 4.330100 16.040833 -2.500000
v 3.966800 16.040833 -3.043800
v 3.535500 16.040833 -3.535500
v 3.043800 16.040833 -3.966800
v 2.500000 16.040833 -4.330100
v 1.913400 16.040833 -4.619400
v 1.294100 16.040833 -4.829600
v 0.652600 16.040833 -4.957200
v 0.000000 16.040833 -5.000000
v -0.652600 16.040833 -4.957200
v -1.294100 16.040833 -4.829600
v -1.913400 16.040833 -4.619400
v -2.500000 16.040833 -4.330100
v -3.043800 16.040833 -3.966800
v -3.535500 16.040833 -3.535500
v -3.966800 16.040833 -3.043800
v -4.330100 16.040833 -2.500000
v -4.619400 16.040833 -1.913400
v -4.829600 16.040833 -1.294100
v -4.957200 16.040833 -0.652600
v -5.000000 16.040833 0.000000
v -4.957200 16.040833 0.652600
v -4.829600 16.040833 1.294100
v -4.619400 16.040833 1.913400
v -4.330100 16.040833 2.500000
v -3.966800 16.040833 3.043800
v -3.535500 16.040833 3.535500
v -3.043800 16.040833 3.966800
v -2.500000 16.040833 4.330100
v -1.913400 16.040833 4.619400
v -1.294100 16.040833 4.829600
v -0.652600 16.040833 4.957200
v 0.000000 16.040833 5.000000
v 0.652600 16.040833 4.957200
v 1.294100 16.040833 4.829600
v 1.913400 16.040833 4.619400
v 2.500000 16.040833 4.330100
v 3.043800 16.040833 3.966800
v 3.535500 16.040833 3.535500
v 3.966800 16.040833 3.043800
v 4.330100 16.040833 2.500000
v 4.619400 16.040833 1.913400
v 4.829600 16.040833 1.294100
v 4.957200 16.040833 0.652600
v 0.750000 0.040833 0.000000
v 0.743600 0.040833 -0.097900
v 0.724400 0.040833 -0.194100
v 0.692900 0.040833 -0.287000
v 0.649500 0.040833 -0.375000
v 0.595000 0.040833 -0.456600
v 0.530300 0.040833 -0.530300
v 0.456600 0.040833 -0.595000
v 0.375000 0.040833 -0.649500
v 0.287000 0.040833 -0.692900
v 0.194100 0.040833 -0.724400
v 0.097900 0.040833 -0.743600
v 0.000000 0.040833 -0.750000
v -0.097900 0.040833 -0.743600
v -0.194100 0.040833 -0.724400
v -0.287000 0.040833 -0.692900
v -0.375000 0.040833 -0.649500
v -0.456600 0.040833 -0.595000
v -0.530300 0.040833 -0.530300
v -0.595000 0.040833 -0.456600
v -0.649500 0.040833 -0.375000
v -0.692900 0.040833 -0.287000
v -0.724400 0.040833 -0.194100
v -0.743600 0.040833 -0.097900
v -0.750000 0.040833 0.000000
v -0.743600 0.040833 0.097900
v -0.724400 0.040833 0.194100
v -0.692900 0.040833 0.287000
v -0.649500 0.040833 0.375000
v -0.595000 0.040833 0.456600
v -0.530300 0.040833 0.530300
v -0.456600 0.040833 0.595000
v -0.375000 0.040833 0.649500
v -0.287000 0.040833 0.692900
v -0.194100 0.040833 0.724400
v -0.097900 0.040833 0.743600
v 0.000000 0.040833 0.750000
v 0.097900 0.040833 0.743600
v 0.194100 0.040833 0.724400
v 0.287000 0.040833 0.692900
v 0.375000 0.040833 0.649500
v 0.456600 0.040833 0.595000
v 0.530300 0.040833 0.530300
v 0.595000 0.040833 0.456600
v 0.649500 0.040833 0.375000
v 0.692900 0.040833 0.287000
v 0.724400 0.040833 0.194100
v 0.743600 0.040833 0.097900
v 0.000000 16.040833 0.000000
v 0.000000 0.040833 0.000000
v 24.000000 29.040833 0.000000
v 27.975901 29.040833 -1.466200
v 23.868500 29.040833 -2.508700
v 23.704500 29.040833 -3.754400
v 23.475500 29.040833 -4.989900
v 23.182199 29.040833 -6.211700
v 22.825399 29.040833 -7.416400
v 22.405899 29.040833 -8.600800
v 21.925100 29.040833 -9.761700
v 21.384199 29.040833 -10.895800
v 20.784599 29.040833 -12.000000
v 20.128099 29.040833 -13.071300
v 19.416401 29.040833 -14.106800
v 18.651501 29.040833 -15.103700
v 17.835501 29.040833 -16.059099
v 16.970600 29.040833 -16.970600
v 16.059099 29.040833 -17.835501
v 15.103700 29.040833 -18.651501
v 14.106800 29.040833 -19.416401
v 13.071300 29.040833 -20.128099
v 12.000000 29.040833 -20.784599
v 12.718200 29.040833 -24.960899
v 9.761700 29.040833 -21.925100
v 8.600800 29.040833 -22.405899
v 7.416400 29.040833 -22.825399
v 6.211700 29.040833 -23.182199
v 4.989900 29.040833 -23.475500
v 3.754400 29.040833 -23.704500
v 2.508700 29.040833 -23.868500
v 1.256100 29.040833 -23.967100
v 0.000000 29.040833 -24.000000
v -1.256100 29.040833 -23.967100
v -2.508700 29.040833 -23.868500
v -3.754400 29.040833 -23.704500
v -4.989900 29.040833 -23.475500
v -6.211700 29.040833 -23.182199
v -7.416400 29.040833 -22.825399
v -8.600800 29.040833 -22.405899
v -9.761700 29.040833 -21.925100
v -10.895800 29.040833 -21.384199
v -12.000000 29.040833 -20.784599
v -15.257700 29.040833 -23.494801
v -14.106800 29.040833 -19.416401
v -15.103700 29.040833 -18.651501
v -16.059099 29.040833 -17.835501
v -16.970600 29.040833 -16.970600
v -17.835501 29.040833 -16.059099
v -18.651501 29.040833 -15.103700
v -19.416401 29.040833 -14.106800
v -20.128099 29.040833 -13.071300
v -20.784599 29.040833 -12.000000
v -21.384199 29.040833 -10.895800
v -21.925100 29.040833 -9.761700
v -22.405899 29.040833 -8.600800
v -22.825399 29.040833 -7.416400
v -23.182199 29.040833 -6.211700
v -23.475500 29.040833 -4.989900
v -23.704500 29.040833 -3.754400
v -23.868500 29.040833 -2.508700
v -23.967100 29.040833 -1.256100
v -24.000000 29.040833 0.000000
v -27.975901 29.040833 1.466200
v -23.868500 29.040833 2.508700
v -23.704500 29.040833 3.754400
v -23.475500 29.040833 4.989900
v -23.182199 29.040833 6.211700
v -22.825399 29.040833 7.416400
v -22.405899 29.040833 8.600800
v -21.925100 29.040833 9.761700
v -21.384199 29.040833 10.895800
v -20.784599 29.040833 12.000000
v -20.128099 29.040833 13.071300
v -19.416401 29.040833 14.106800
v -18.651501 29.040833 15.103700
v -17.835501 29.040833 16.059099
v -16.970600 29.040833 16.970600
v -16.059099 29.040833 17.835501
v -15.103700 29.040833 18.651501
v -14.106800 29.040833 19.416401
v -13.071300 29.040833 20.128099
v -12.000000 29.040833 20.784599
v -12.718200 29.040833 24.960899
v -9.761700 29.040833 21.925100
v -8.600800 29.040833 22.405899
v -7.416400 29.040833 22.825399
v -6.211700 29.040833 23.182199
v -4.989900 29.040833 23.475500
v -3.754400 29.040833 23.704500
v -2.508700 29.040833 23.868500
v -1.256100 29.040833 23.967100
v 0.000000 29.040833 24.000000
v 1.256100 29.040833 23.967100
v 2.508700 29.040833 23.868500
v 3.754400 29.040833 23.704500
v 4.989900 29.040833 23.475500
v 6.211700 29.040833 23.182199
v 7.416400 29.040833 22.825399
v 8.600800 29.040833 22.405899
v 9.761700 29.040833 21.925100
v 10.895800 29.040833 21.384199
v 12.000000 29.040833 20.784599
v 15.257700 29.040833 23.494801
v 14.106800 29.040833 19.416401
v 15.103700 29.040833 18.651501
v 16.059099 29.040833 17.835501
v 16.970600 29.040833 16.970600
v 17.835501 29.040833 16.059099
v 18.651501 29.040833 15.103700
v 19.416401 29.040833 14.106800
v 20.128099 29.040833 13.071300
v 20.784599 29.040833 12.000000
v 21.384199 29.040833 10.895800
v 21.925100 29.040833 9.761700
v 22.405899 29.040833 8.600800
v 22.825399 29.040833 7.416400
v 23.182199 29.040833 6.211700
v 23.475500 29.040833 4.989900
v 23.704500 29.040833 3.754400
v 23.868500 29.040833 2.508700
v 23.967100 29.040833 1.256100
v 24.000000 16.040833 0.000000
v 27.975901 16.040833 -1.466200
v 23.868500 16.040833 -2.508700
v 23.704500 16.040833 -3.754400
v 23.475500 16.040833 -4.989900
v 23.182199 16.040833 -6.211700
v 22.825399 16.040833 -7.416400
v 22.405899 16.040833 -8.600800
v 21.925100 16.040833 -9.761700
v 21.384199 16.040833 -10.895800
v 20.784599 16.040833 -12.000000
v 20.128099 16.040833 -13.071300
v 19.416401 16.040833 -14.106800
v 18.651501 16.040833 -15.103700
v 17.835501 16.040833 -16.059099
v 16.970600 16.040833 -16.970600
v 16.059099 16.040833 -17.835501
v 15.103700 16.040833 -18.651501
v 14.106800 16.040833 -19.416401
v 13.071300 16.040833 -20.128099
v 12.000000 16.040833 -20.784599
v 12.718200 16.040833 -24.960899
v 9.761700 16.040833 -21.925100
v 8.600800 16.040833 -22.405899
v 7.416400 16.040833 -22.825399
v 6.211700 16.040833 -23.182199
v 4.989900 16.040833 -23.475500
v 3.754400 16.040833 -23.704500
v 2.508700 16.040833 -23.868500
v 1.256100 16.040833 -23.967100
v 0.000000 16.040833 -24.000000
v -1.256100 16.040833 -23.967100
v -2.508700 16.040833 -23.868500
v -3.754400 16.040833 -23.704500
v -4.989900 16.040833 -23.475500
v -6.211700 16.040833 -23.182199
v -7.416400 16.040833 -22.825399
v -8.600800 16.040833 -22.405899
v -9.761700 16.040833 -21.925100
v -10.895800 16.040833 -21.384199
v -12.000000 16.040833 -20.784599
v -15.257700 16.040833 -23.494801
v -14.106800 16.040833 -19.416401
v -15.103700 16.040833 -18.651501
v -16.059099 16.040833 -17.835501
v -16.970600 16.040833 -16.970600
v -17.835501 16.040833 -16.059099
v -18.651501 16.040833 -15.103700
v -19.416401 16.040833 -14.106800
v -20.128099 16.040833 -13.071300
v -20.784599 16.040833 -12.000000
v -21.384199 16.040833 -10.895800
v -21.925100 16.040833 -9.761700
v -22.405899 16.040833 -8.600800
v -22.825399 16.040833 -7.416400
v -23.182199 16.040833 -6.211700
v -23.475500 16.040833 -4.989900
v -23.704500 16.040833 -3.754400
v -23.868500 16.040833 -2.508700
v -23.967100 16.040833 -1.256100
v -24.000000 16.040833 0.000000
v -27.975901 16.040833 1.466200
v -23.868500 16.040833 2.508700
v -23.704500 16.040833 3.754400
v -23.475500 16.040833 4.989900
v -23.182199 16.040833 6.211700
v -22.825399 16.040833 7.416400
v -22.405899 16.040833 8.600800
v -21.925100 16.040833 9.761700
v -21.384199 16.040833 10.895800
v -20.784599 16.040833 12.000000
v -20.128099 16.040833 13.071300
v -19.416401 16.040833 14.106800
v -18.651501 16.040833 15.103700
v -17.835501 16.040833 16.059099
v -16.970600 16.040833 16.970600
v -16.059099 16.040833 17.835501
v -15.103700 16.040833 18.651501
v -14.106800 16.040833 19.416401
v -13.071300 16.040833 20.128099
v -12.000000 16.040833 20.784599
v -12.718200 16.040833 24.960899
v -9.761700 16.040833 21.925100
v -8.600800 16.040833 22.405899
v -7.416400 16.040833 22.825399
v -6.211700 16.040833 23.182199
v -4.989900 16.040833 23.475500
v -3.754400 16.040833 23.704500
v -2.508700 16.040833 23.868500
v -1.256100 16.040833 23.967100
v 0.000000 16.040833 24.000000
v 1.256100 16.040833 23.967100
v 2.508700 16.040833 23.868500
v 3.754400 16.040833 23.704500
v 4.989900 16.040833 23.475500
v 6.211700 16.040833 23.182199
v 7.416400 16.040833 22.825399
v 8.600800 16.040833 22.405899
v 9.761700 16.040833 21.925100
v 10.895800 16.040833 21.384199
v 12.000000 16.040833 20.784599
v 15.257700 16.040833 23.494801
v 14.106800 16.040833 19.416401
v 15.103700 16.040833 18.651501
v 16.059099 16.040833 17.835501
v 16.970600 16.040833 16.970600
v 17.835501 16.040833 16.059099
v 18.651501 16.040833 15.103700
v 19.416401 16.040833 14.106800
v 20.128099 16.040833 13.071300
v 20.784599 16.040833 12.000000
v 21.384199 16.040833 10.895800
v 21.925100 16.040833 9.761700
v 22.405899 16.040833 8.600800
v 22.825399 16.040833 7.416400
v 23.182199 16.040833 6.211700
v 23.475500 16.040833 4.989900
v 23.704500 16.040833 3.754400
v 23.868500 16.040833 2.508700
v 23.967100 16.040833 1.256100
v 0.000000 29.040833 0.000000
v 0.000000 16.040833 0.000000
vn 0.9646 -0.2562 -0.0632
vn -0.0000 -1.0000 -0.0000
vn -0.0000 1.0000 -0.0000
vn 0.9480 -0.2562 -0.1887
vn 0.9153 -0.2562 -0.3106
vn 0.8669 -0.2562 -0.4276
vn 0.8038 -0.2562 -0.5370
vn 0.7266 -0.2562 -0.6375
vn 0.6375 -0.2562 -0.7266
vn 0.5370 -0.2562 -0.8038
vn 0.4276 -0.2562 -0.8669
vn 0.3106 -0.2562 -0.9153
vn 0.1887 -0.2562 -0.9480
vn 0.0632 -0.2562 -0.9646
vn -0.0632 -0.2562 -0.9646
vn -0.1887 -0.2562 -0.9480
vn -0.3106 -0.2562 -0.9153
vn -0.4276 -0.2562 -0.8669
vn -0.5370 -0.2562 -0.8038
vn -0.6375 -0.2562 -0.7266
vn -0.7266 -0.2562 -0.6375
vn -0.8038 -0.2562 -0.5370
vn -0.8669 -0.2562 -0.4276
vn -0.9153 -0.2562 -0.3106
vn -0.9480 -0.2562 -0.1887
vn -0.9646 -0.2562 -0.0632
vn -0.9646 -0.2562 0.0632
vn -0.9480 -0.2562 0.1887
vn -0.9153 -0.2562 0.3106
vn -0.8669 -0.2562 0.4276
vn -0.8038 -0.2562 0.5370
vn -0.7266 -0.2562 0.6375
vn -0.6375 -0.2562 0.7266
vn -0.5370 -0.2562 0.8038
vn -0.4276 -0.2562 0.8669
vn -0.3106 -0.2562 0.9153
vn -0.1887 -0.2562 0.9480
vn -0.0632 -0.2562 0.9646
vn 0.0632 -0.2562 0.9646
vn 0.1887 -0.2562 0.9480
vn 0.3106 -0.2562 0.9153
vn 0.4276 -0.2562 0.8669
vn 0.5370 -0.2562 0.8038
vn 0.6375 -0.2562 0.7266
vn 0.7266 -0.2562 0.6375
vn 0.8038 -0.2562 0.5370
vn 0.8669 -0.2562 0.4276
vn 0.9153 -0.2562 0.3106
vn 0.9480 -0.2562 0.1887
vn 0.9646 -0.2562 0.0632
vn 0.3460 -0.0000 0.9382
vn 0.2460 -0.0000 -0.9693
vn 0.9914 -0.0000 -0.1305
vn 0.9833 -0.0000 -0.1822
vn 0.9724 -0.0000 -0.2334
vn 0.9588 -0.0000 -0.2840
vn 0.9426 -0.0000 -0.3339
vn 0.9239 -0.0000 -0.3826
vn 0.9026 -0.0000 -0.4305
vn 0.8788 -0.0000 -0.4772
vn 0.8526 -0.0000 -0.5225
vn 0.8241 -0.0000 -0.5664
vn 0.7934 -0.0000 -0.6087
vn 0.7604 -0.0000 -0.6495
vn 0.7254 -0.0000 -0.6883
vn 0.6883 -0.0000 -0.7254
vn 0.6495 -0.0000 -0.7604
vn 0.6087 -0.0000 -0.7934
vn 0.5664 -0.0000 -0.8241
vn 0.5225 -0.0000 -0.8526
vn 0.9855 -0.0000 0.1695
vn -0.7164 -0.0000 -0.6977
vn 0.3826 -0.0000 -0.9239
vn 0.3339 -0.0000 -0.9426
vn 0.2840 -0.0000 -0.9588
vn 0.2334 -0.0000 -0.9724
vn 0.1822 -0.0000 -0.9833
vn 0.1305 -0.0000 -0.9914
vn 0.0785 -0.0000 -0.9969
vn 0.0262 -0.0000 -0.9997
vn -0.0262 -0.0000 -0.9997
vn -0.0785 -0.0000 -0.9969
vn -0.1305 -0.0000 -0.9914
vn -0.1822 -0.0000 -0.9833
vn -0.2334 -0.0000 -0.9724
vn -0.2840 -0.0000 -0.9588
vn -0.3339 -0.0000 -0.9426
vn -0.3826 -0.0000 -0.9239
vn -0.4305 -0.0000 -0.9026
vn -0.4772 -0.0000 -0.8788
vn 0.6396 -0.0000 -0.7687
vn -0.9624 -0.0000 0.2716
vn -0.6087 -0.0000 -0.7934
vn -0.6495 -0.0000 -0.7604
vn -0.6883 -0.0000 -0.7254
vn -0.7254 -0.0000 -0.6883
vn -0.7604 -0.0000 -0.6495
vn -0.7934 -0.0000 -0.6087
vn -0.8241 -0.0000 -0.5664
vn -0.8526 -0.0000 -0.5225
vn -0.8788 -0.0000 -0.4772
vn -0.9026 -0.0000 -0.4305
vn -0.9239 -0.0000 -0.3826
vn -0.9426 -0.0000 -0.3339
vn -0.9588 -0.0000 -0.2840
vn -0.9724 -0.0000 -0.2334
vn -0.9833 -0.0000 -0.1822
vn -0.9914 -0.0000 -0.1305
vn -0.9969 -0.0000 -0.0785
vn -0.9997 -0.0000 -0.0262
vn -0.3460 -0.0000 -0.9382
vn -0.2460 -0.0000 0.9693
vn -0.9914 -0.0000 0.1305
vn -0.9833 -0.0000 0.1822
vn -0.9724 -0.0000 0.2334
vn -0.9588 -0.0000 0.2840
vn -0.9426 -0.0000 0.3339
vn -0.9239 -0.0000 0.3826
vn -0.9026 -0.0000 0.4305
vn -0.8788 -0.0000 0.4772
vn -0.8526 -0.0000 0.5225
vn -0.8241 -0.0000 0.5664
vn -0.7934 -0.0000 0.6087
vn -0.7604 -0.0000 0.6495
vn -0.7254 -0.0000 0.6883
vn -0.6883 -0.0000 0.7254
vn -0.6495 -0.0000 0.7604
vn -0.6087 -0.0000 0.7934
vn -0.5664 -0.0000 0.8241
vn -0.5225 -0.0000 0.8526
vn -0.9855 -0.0000 -0.1695
vn 0.7164 -0.0000 0.6977
vn -0.3826 -0.0000 0.9239
vn -0.3339 -0.0000 0.9426
vn -0.2840 -0.0000 0.9588
vn -0.2334 -0.0000 0.9724
vn -0.1822 -0.0000 0.9833
vn -0.1305 -0.0000 0.9914
vn -0.0785 -0.0000 0.9969
vn -0.0262 -0.0000 0.9997
vn 0.0262 -0.0000 0.9997
vn 0.0785 -0.0000 0.9969
vn 0.1305 -0.0000 0.9914
vn 0.1822 -0.0000 0.9833
vn 0.2334 -0.0000 0.9724
vn 0.2840 -0.0000 0.9588
vn 0.3339 -0.0000 0.9426
vn 0.3826 -0.0000 0.9239
vn 0.4305 -0.0000 0.9026
vn 0.4772 -0.0000 0.8788
vn -0.6396 -0.0000 0.7687
vn 0.9624 -0.0000 -0.2716
vn 0.6087 -0.0000 0.7934
vn 0.6495 -0.0000 0.7604
vn 0.6883 -0.0000 0.7254
vn 0.7254 -0.0000 0.6883
vn 0.7604 -0.0000 0.6495
vn 0.7934 -0.0000 0.6087
vn 0.8241 -0.0000 0.5664
vn 0.8526 -0.0000 0.5225
vn 0.8788 -0.0000 0.4772
vn 0.9026 -0.0000 0.4305
vn 0.9239 -0.0000 0.3826
vn 0.9426 -0.0000 0.3339
vn 0.9588 -0.0000 0.2840
vn 0.9724 -0.0000 0.2334
vn 0.9833 -0.0000 0.1822
vn 0.9914 -0.0000 0.1305
vn 0.9969 -0.0000 0.0785
vn 0.9997 -0.0000 0.0262
s 0
f 1//1 49//1 50//1 2//1
f 97//2 2//2 1//2
f 98//3 49//3 50//3
f 2//4 50//4 51//4 3//4
f 97//2 3//2 2//2
f 98//3 50//3 51//3
f 3//5 51//5 52//5 4//5
f 97//2 4//2 3//2
f 98//3 51//3 52//3
f 4//6 52//6 53//6 5//6
f 97//2 5//2 4//2
f 98//3 52//3 53//3
f 5//7 53//7 54//7 6//7
f 97//2 6//2 5//2
f 98//3 53//3 54//3
f 6//8 54//8 55//8 7//8
f 97//2 7//2 6//2
f 98//3 54//3 55//3
f 7//9 55//9 56//9 8//9
f 97//2 8//2 7//2
f 98//3 55//3 56//3
f 8//10 56//10 57//10 9//10
f 97//2 9//2 8//2
f 98//3 56//3 57//3
f 9//11 57//11 58//11 10//11
f 97//2 10//2 9//2
f 98//3 57//3 58//3
f 10//12 58//12 59//12 11//12
f 97//2 11//2 10//2
f 98//3 58//3 59//3
f 11//13 59//13 60//13 12//13
f 97//2 12//2 11//2
f 98//3 59//3 60//3
f 12//14 60//14 61//14 13//14
f 97//2 13//2 12//2
f 98//3 60//3 61//3
f 13//15 61//15 62//15 14//15
f 97//2 14//2 13//2
f 98//3 61//3 62//3
f 14//16 62//16 63//16 15//16
f 97//2 15//2 14//2
f 98//3 62//3 63//3
f 15//17 63//17 64//17 16//17
f 97//2 16//2 15//2
f 98//3 63//3 64//3
f 16//18 64//18 65//18 17//18
f 97//2 17//2 16//2
f 98//3 64//3 65//3
f 17//19 65//19 66//19 18//19
f 97//2 18//2 17//2
f 98//3 65//3 66//3
f 18//20 66//20 67//20 19//20
f 97//2 19//2 18//2
f 98//3 66//3 67//3
f 19//21 67//21 68//21 20//21
f 97//2 20//2 19//2
f 98//3 67//3 68//3
f 20//22 68//22 69//22 21//22
f 97//2 21//2 20//2
f 98//3 68//3 69//3
f 21//23 69//23 70//23 22//23
f 97//2 22//2 21//2
f 98//3 69//3 70//3
f 22//24 70//24 71//24 23//24
f 97//2 23//2 22//2
f 98//3 70//3 71//3
f 23//25 71//25 72//25 24//25
f 97//2 24//2 23//2
f 98//3 71//3 72//3
f 24//26 72//26 73//26 25//26
f 97//2 25//2 24//2
f 98//3 72//3 73//3
f 25//27 73//27 74//27 26//27
f 97//2 26//2 25//2
f 98//3 73//3 74//3
f 26//28 74//28 75//28 27//28
f 97//2 27//2 26//2
f 98//3 74//3 75//3
f 27//29 75//29 76//29 28//29
f 97//2 28//2 27//2
f 98//3 75//3 76//3
f 28//30 76//30 77//30 29//30
f 97//2 29//2 28//2
f 98//3 76//3 77//3
f 29//31 77//31 78//31 30//31
f 97//2 30//2 29//2
f 98//3 77//3 78//3
f 30//32 78//32 79//32 31//32
f 97//2 31//2 30//2
f 98//3 78//3 79//3
f 31//33 79//33 80//33 32//33
f 97//2 32//2 31//2
f 98//3 79//3 80//3
f 32//34 80//34 81//34 33//34
f 97//2 33//2 32//2
f 98//3 80//3 81//3
f 33//35 81//35 82//35 34//35
f 97//2 34//2 33//2
f 98//3 81//3 82//3
f 34//36 82//36 83//36 35//36
f 97//2 35//2 34//2
f 98//3 82//3 83//3
f 35//37 83//37 84//37 36//37
f 97//2 36//2 35//2
f 98//3 83//3 84//3
f 36//38 84//38 85//38 37//38
f 97//2 37//2 36//2
f 98//3 84//3 85//3
f 37//39 85//39 86//39 38//39
f 97//2 38//2 37//2
f 98//3 85//3 86//3
f 38//40 86//40 87//40 39//40
f 97//2 39//2 38//2
f 98//3 86//3 87//3
f 39//41 87//41 88//41 40//41
f 97//2 40//2 39//2
f 98//3 87//3 88//3
f 40//42 88//42 89//42 41//42
f 97//2 41//2 40//2
f 98//3 88//3 89//3
f 41//43 89//43 90//43 42//43
f 97//2 42//2 41//2
f 98//3 89//3 90//3
f 42//44 90//44 91//44 43//44
f 97//2 43//2 42//2
f 98//3 90//3 91//3
f 43//45 91//45 92//45 44//45
f 97//2 44//2 43//2
f 98//3 91//3 92//3
f 44//46 92//46 93//46 45//46
f 97//2 45//2 44//2
f 98//3 92//3 93//3
f 45//47 93//47 94//47 46//47
f 97//2 46//2 45//2
f 98//3 93//3 94//3
f 46//48 94//48 95//48 47//48
f 97//2 47//2 46//2
f 98//3 94//3 95//3
f 47//49 95//49 96//49 48//49
f 97//2 48//2 47//2
f 98//3 95//3 96//3
f 48//50 96//50 49//50 1//50
f 97//2 1//2 48//2
f 98//3 96//3 49//3
f 99//51 219//51 220//51 100//51
f 339//3 99//3 100//3
f 340//2 220//2 219//2
f 100//52 220//52 221//52 101//52
f 339//3 100//3 101//3
f 340//2 221//2 220//2
f 101//53 221//53 222//53 102//53
f 339//3 101//3 102//3
f 340//2 222//2 221//2
f 102//54 222//54 223//54 103//54
f 339//3 102//3 103//3
f 340//2 223//2 222//2
f 103//55 223//55 224//55 104//55
f 339//3 103//3 104//3
f 340//2 224//2 223//2
f 104//56 224//56 225//56 105//56
f 339//3 104//3 105//3
f 340//2 225//2 224//2
f 105//57 225//57 226//57 106//57
f 339//3 105//3 106//3
f 340//2 226//2 225//2
f 106//58 226//58 227//58 107//58
f 339//3 106//3 107//3
f 340//2 227//2 226//2
f 107//59 227//59 228//59 108//59
f 339//3 107//3 108//3
f 340//2 228//2 227//2
f 108//60 228//60 229//60 109//60
f 339//3 108//3 109//3
f 340//2 229//2 228//2
f 109//61 229//61 230//61 110//61
f 339//3 109//3 110//3
f 340//2 230//2 229//2
f 110//62 230//62 231//62 111//62
f 339//3 110//3 111//3
f 340//2 231//2 230//2
f 111//63 231//63 232//63 112//63
f 339//3 111//3 112//3
f 340//2 232//2 231//2
f 112//64 232//64 233//64 113//64
f 339//3 112//3 113//3
f 340//2 233//2 232//2
f 113//65 233//65 234//65 114//65
f 339//3 113//3 114//3
f 340//2 234//2 233//2
f 114//66 234//66 235//66 115//66
f 339//3 114//3 115//3
f 340//2 235//2 234//2
f 115//67 235//67 236//67 116//67
f 339//3 115//3 116//3
f 340//2 236//2 235//2
f 116//68 236//68 237//68 117//68
f 339//3 116//3 117//3
f 340//2 237//2 236//2
f 117//69 237//69 238//69 118//69
f 339//3 117//3 118//3
f 340//2 238//2 237//2
f 118//70 238//70 239//70 119//70
f 339//3 118//3 119//3
f 340//2 239//2 238//2
f 119//71 239//71 240//71 120//71
f 339//3 119//3 120//3
f 340//2 240//2 239//2
f 120//72 240//72 241//72 121//72
f 339//3 120//3 121//3
f 340//2 241//2 240//2
f 121//73 241//73 242//73 122//73
f 339//3 121//3 122//3
f 340//2 242//2 241//2
f 122//74 242//74 243//74 123//74
f 339//3 122//3 123//3
f 340//2 243//2 242//2
f 123//75 243//75 244//75 124//75
f 339//3 123//3 124//3
f 340//2 244//2 243//2
f 124//76 244//76 245//76 125//76
f 339//3 124//3 125//3
f 340//2 245//2 244//2
f 125//77 245//77 246//77 126//77
f 339//3 125//3 126//3
f 340//2 246//2 245//2
f 126//78 246//78 247//78 127//78
f 339//3 126//3 127//3
f 340//2 247//2 246//2
f 127//79 247//79 248//79 128//79
f 339//3 127//3 128//3
f 340//2 248//2 247//2
f 128//80 248//80 249//80 129//80
f 339//3 128//3 129//3
f 340//2 249//2 248//2
f 129//81 249//81 250//81 130//81
f 339//3 129//3 130//3
f 340//2 250//2 249//2
f 130//82 250//82 251//82 131//82
f 339//3 130//3 131//3
f 340//2 251//2 250//2
f 131//83 251//83 252//83 132//83
f 339//3 131//3 132//3
f 340//2 252//2 251//2
f 132//84 252//84 253//84 133//84
f 339//3 132//3 133//3
f 340//2 253//2 252//2
f 133//85 253//85 254//85 134//85
f 339//3 133//3 134//3
f 340//2 254//2 253//2
f 134//86 254//86 255//86 135//86
f 339//3 134//3 135//3
f 340//2 255//2 254//2
f 135//87 255//87 256//87 136//87
f 339//3 135//3 136//3
f 340//2 256//2 255//2
f 136//88 256//88 257//88 137//88
f 339//3 136//3 137//3
f 340//2 257//2 256//2
f 137//89 257//89 258//89 138//89
f 339//3 137//3 138//3
f 340//2 258//2 257//2
f 138//90 258//90 259//90 139//90
f 339//3 138//3 139//3
f 340//2 259//2 258//2
f 139//91 259//91 260//91 140//91
f 339//3 139//3 140//3
f 340//2 260//2 259//2
f 140//92 260//92 261//92 141//92
f 339//3 140//3 141//3
f 340//2 261//2 260//2
f 141//93 261//93 262//93 142//93
f 339//3 141//3 142//3
f 340//2 262//2 261//2
f 142//94 262//94 263//94 143//94
f 339//3 142//3 143//3
f 340//2 263//2 262//2
f 143//95 263//95 264//95 144//95
f 339//3 143//3 144//3
f 340//2 264//2 263//2
f 144//96 264//96 265//96 145//96
f 339//3 144//3 145//3
f 340//2 265//2 264//2
f 145//97 265//97 266//97 146//97
f 339//3 145//3 146//3
f 340//2 266//2 265//2
f 146//98 266//98 267//98 147//98
f 339//3 146//3 147//3
f 340//2 267//2 266//2
f 147//99 267//99 268//99 148//99
f 339//3 147//3 148//3
f 340//2 268//2 267//2
f 148//100 268//100 269//100 149//100
f 339//3 148//3 149//3
f 340//2 269//2 268//2
f 149//101 269//101 270//101 150//101
f 339//3 149//3 150//3
f 340//2 270//2 269//2
f 150//102 270//102 271//102 151//102
f 339//3 150//3 151//3
f 340//2 271//2 270//2
f 151//103 271//103 272//103 152//103
f 339//3 151//3 152//3
f 340//2 272//2 271//2
f 152//104 272//104 273//104 153//104
f 339//3 152//3 153//3
f 340//2 273//2 272//2
f 153//105 273//105 274//105 154//105
f 339//3 153//3 154//3
f 340//2 274//2 273//2
f 154//106 274//106 275//106 155//106
f 339//3 154//3 155//3
f 340//2 275//2 274//2
f 155//107 275//107 276//107 156//107
f 339//3 155//3 156//3
f 340//2 276//2 275//2
f 156//108 276//108 277//108 157//108
f 339//3 156//3 157//3
f 340//2 277//2 276//2
f 157//109 277//109 278//109 158//109
f 339//3 157//3 158//3
f 340//2 278//2 277//2
f 158//110 278//110 279//110 159//110
f 339//3 158//3 159//3
f 340//2 279//2 278//2
f 159//111 279//111 280//111 160//111
f 339//3 159//3 160//3
f 340//2 280//2 279//2
f 160//112 280//112 281//112 161//112
f 339//3 160//3 161//3
f 340//2 281//2 280//2
f 161//113 281//113 282//113 162//113
f 339//3 161//3 162//3
f 340//2 282//2 281//2
f 162//114 282//114 283//114 163//114
f 339//3 162//3 163//3
f 340//2 283//2 282//2
f 163//115 283//115 284//115 164//115
f 339//3 163//3 164//3
f 340//2 284//2 283//2
f 164//116 284//116 285//116 165//116
f 339//3 164//3 165//3
f 340//2 285//2 284//2
f 165//117 285//117 286//117 166//117
f 339//3 165//3 166//3
f 340//2 286//2 285//2
f 166//118 286//118 287//118 167//118
f 339//3 166//3 167//3
f 340//2 287//2 286//2
f 167//119 287//119 288//119 168//119
f 339//3 167//3 168//3
f 340//2 288//2 287//2
f 168//120 288//120 289//120 169//120
f 339//3 168//3 169//3
f 340//2 289//2 288//2
f 169//121 289//121 290//121 170//121
f 339//3 169//3 170//3
f 340//2 290//2 289//2
f 170//122 290//122 291//122 171//122
f 339//3 170//3 171//3
f 340//2 291//2 290//2
f 171//123 291//123 292//123 172//123
f 339//3 171//3 172//3
f 340//2 292//2 291//2
f 172//124 292//124 293//124 173//124
f 339//3 172//3 173//3
f 340//2 293//2 292//2
f 173//125 293//125 294//125 174//125
f 339//3 173//3 174//3
f 340//2 294//2 293//2
f 174//126 294//126 295//126 175//126
f 339//3 174//3 175//3
f 340//2 295//2 294//2
f 175//127 295//127 296//127 176//127
f 339//3 175//3 176//3
f 340//2 296//2 295//2
f 176//128 296//128 297//128 177//128
f 339//3 176//3 177//3
f 340//2 297//2 296//2
f 177//129 297//129 298//129 178//129
f 339//3 177//3 178//3
f 340//2 298//2 297//2
f 178//130 298//130 299//130 179//130
f 339//3 178//3 179//3
f 340//2 299//2 298//2
f 179//131 299//131 300//131 180//131
f 339//3 179//3 180//3
f 340//2 300//2 299//2
f 180//132 300//132 301//132 181//132
f 339//3 180//3 181//3
f 340//2 301//2 300//2
f 181//133 301//133 302//133 182//133
f 339//3 181//3 182//3
f 340//2 302//2 301//2
f 182//134 302//134 303//134 183//134
f 339//3 182//3 183//3
f 340//2 303//2 302//2
f 183//135 303//135 304//135 184//135
f 339//3 183//3 184//3
f 340//2 304//2 303//2
f 184//136 304//136 305//136 185//136
f 339//3 184//3 185//3
f 340//2 305//2 304//2
f 185//137 305//137 306//137 186//137
f 339//3 185//3 186//3
f 340//2 306//2 305//2
f 186//138 306//138 307//138 187//138
f 339//3 186//3 187//3
f 340//2 307//2 306//2
f 187//139 307//139 308//139 188//139
f 339//3 187//3 188//3
f 340//2 308//2 307//2
f 188//140 308//140 309//140 189//140
f 339//3 188//3 189//3
f 340//2 309//2 308//2
f 189//141 309//141 310//141 190//141
f 339//3 189//3 190//3
f 340//2 310//2 309//2
f 190//142 310//142 311//142 191//142
f 339//3 190//3 191//3
f 340//2 311//2 310//2
f 191//143 311//143 312//143 192//143
f 339//3 191//3 192//3
f 340//2 312//2 311//2
f 192//144 312//144 313//144 193//144
f 339//3 192//3 193//3
f 340//2 313//2 312//2
f 193//145 313//145 314//145 194//145
f 339//3 193//3 194//3
f 340//2 314//2 313//2
f 194//146 314//146 315//146 195//146
f 339//3 194//3 195//3
f 340//2 315//2 314//2
f 195//147 315//147 316//147 196//147
f 339//3 195//3 196//3
f 340//2 316//2 315//2
f 196//148 316//148 317//148 197//148
f 339//3 196//3 197//3
f 340//2 317//2 316//2
f 197//149 317//149 318//149 198//149
f 339//3 197//3 198//3
f 340//2 318//2 317//2
f 198//150 318//150 319//150 199//150
f 339//3 198//3 199//3
f 340//2 319//2 318//2
f 199//151 319//151 320//151 200//151
f 339//3 199//3 200//3
f 340//2 320//2 319//2
f 200//152 320//152 321//152 201//152
f 339//3 200//3 201//3
f 340//2 321//2 320//2
f 201//153 321//153 322//153 202//153
f 339//3 201//3 202//3
f 340//2 322//2 321//2
f 202//154 322//154 323//154 203//154
f 339//3 202//3 203//3
f 340//2 323//2 322//2
f 203//155 323//155 324//155 204//155
f 339//3 203//3 204//3
f 340//2 324//2 323//2
f 204//156 324//156 325//156 205//156
f 339//3 204//3 205//3
f 340//2 325//2 324//2
f 205//157 325//157 326//157 206//157
f 339//3 205//3 206//3
f 340//2 326//2 325//2
f 206//158 326//158 327//158 207//158
f 339//3 206//3 207//3
f 340//2 327//2 326//2
f 207//159 327//159 328//159 208//159
f 339//3 207//3 208//3
f 340//2 328//2 327//2
f 208//160 328//160 329//160 209//160
f 339//3 208//3 209//3
f 340//2 329//2 328//2
f 209//161 329//161 330//161 210//161
f 339//3 209//3 210//3
f 340//2 330//2 329//2
f 210//162 330//162 331//162 211//162
f 339//3 210//3 211//3
f 340//2 331//2 330//2
f 211//163 331//163 332//163 212//163
f 339//3 211//3 212//3
f 340//2 332//2 331//2
f 212//164 332//164 333//164 213//164
f 339//3 212//3 213//3
f 340//2 333//2 332//2
f 213//165 333//165 334//165 214//165
f 339//3 213//3 214//3
f 340//2 334//2 333//2
f 214//166 334//166 335//166 215//166
f 339//3 214//3 215//3
f 340//2 335//2 334//2
f 215//167 335//167 336//167 216//167
f 339//3 215//3 216//3
f 340//2 336//2 335//2
f 216//168 336//168 337//168 217//168
f 339//3 216//3 217//3
f 340//2 337//2 336//2
f 217//169 337//169 338//169 218//169
f 339//3 217//3 218//3
f 340//2 338//2 337//2
f 218//170 338//170 219//170 99//170
f 339//3 218//3 99//3
f 340//2 219//2 338//2
